<?xml version="1.0" encoding="utf-8"?>
<!-- Generator: Adobe Illustrator 25.0.0, SVG Export Plug-In . SVG Version: 6.00 Build 0)  -->
<svg version="1.1" id="Layer_1" xmlns="http://www.w3.org/2000/svg" xmlns:xlink="http://www.w3.org/1999/xlink" x="0px" y="0px"
	 viewBox="0 0 30 27" style="enable-background:new 0 0 30 27;" xml:space="preserve">
<style type="text/css">
	.st0{fill:#FFFFFF;}
	.st1{fill:#FFA3EB;}
	.st2{fill:none;stroke:#000000;}
</style>
<path class="st0" d="M16.1,0c2.8,0,4.1,2.5,3.4,4.3c-0.3,1-1.1,2.2-2.8,2.8c-0.3,0.1-0.6,0.2-0.9,0.2c0.9,1,1.5,2.3,1.5,4v2.9
	l2.2,3.4V20h-19v-2.4l2.2-3.4v-2.9c0-1.6,0.6-2.9,1.4-3.9C3.7,7.3,3.3,7.2,2.9,7.1C1.2,6.5,0.5,5.4,0.1,4.3C-0.5,2.5,0.8,0,3.6,0
	C4.3,0,5,0.2,5.7,0.5c0.7,0.3,1.4,0.7,2,1.2C8,2,8.3,2.3,8.6,2.5C9,2.3,9.4,2.1,9.9,2.1c0.5,0,0.9,0.2,1.2,0.4
	c0.3-0.3,0.6-0.5,1-0.8c0.6-0.5,1.3-0.9,2-1.2C14.7,0.2,15.4,0,16.1,0z M3.6,2C2.3,2,1.8,3.1,2,3.7c0.2,0.6,0.6,1.2,1.5,1.5
	c0.7,0.2,1.8,0.3,3.5,0c0.4-0.2,0.7-0.3,1.1-0.4c0,0,0,0,0,0c-0.5-0.5-1-1-1.6-1.4C5.9,3,5.4,2.6,4.8,2.4C4.3,2.1,3.9,2,3.6,2z
	 M16.1,2c-0.3,0-0.7,0.1-1.2,0.4c-0.5,0.2-1.1,0.6-1.7,1c-0.6,0.4-1.1,0.9-1.6,1.4c0.5,0.1,1,0.3,1.5,0.6c1.4,0.2,2.4,0.1,3-0.1
	c1-0.3,1.3-0.9,1.5-1.5C17.8,3.1,17.4,2,16.1,2z"/>
<path class="st0" d="M12.5,21c0,1.4-1.1,2.5-2.5,2.5c-1.4,0-2.5-1.1-2.5-2.5H12.5z"/>
<path class="st1" d="M20.5,8.5L20.5,8.5c5,0,9,4,9,9l0,0c0,5-4,9-9,9l0,0c-5,0-9-4-9-9l0,0C11.5,12.5,15.5,8.5,20.5,8.5z"/>
<path class="st2" d="M20.5,8.5L20.5,8.5c5,0,9,4,9,9l0,0c0,5-4,9-9,9l0,0c-5,0-9-4-9-9l0,0C11.5,12.5,15.5,8.5,20.5,8.5z"/>
<path class="st0" d="M17.3,20.7l2.9-3c0.4-0.4,0.7-0.7,0.9-1c0.2-0.2,0.4-0.5,0.5-0.7c0.1-0.2,0.2-0.5,0.2-0.7
	c0-0.3-0.1-0.5-0.2-0.8c-0.1-0.2-0.4-0.4-0.6-0.5c-0.3-0.1-0.5-0.2-0.9-0.2c-0.3,0-0.6,0.1-0.9,0.2c-0.2,0.1-0.4,0.3-0.6,0.6
	c-0.1,0.2-0.2,0.5-0.2,0.8h-1c0-0.5,0.1-0.9,0.3-1.3c0.2-0.4,0.6-0.7,1-0.9c0.4-0.2,0.9-0.3,1.4-0.3c0.5,0,1,0.1,1.4,0.3
	c0.4,0.2,0.7,0.5,0.9,0.8c0.2,0.4,0.3,0.8,0.3,1.2c0,0.3-0.1,0.6-0.2,0.9c-0.1,0.3-0.3,0.6-0.6,1c-0.3,0.4-0.7,0.8-1.2,1.3l-1.9,2
	v0.1h4v0.9h-5.5L17.3,20.7z"/>
</svg>
