<svg width="29" height="26" viewBox="0 0 29 26" fill="none" xmlns="http://www.w3.org/2000/svg">
<path d="M11.6679 21C11.8257 21.3977 12.009 21.7821 12.2168 22.1514C11.8001 22.952 10.965 23.5 9.99997 23.5C8.61926 23.5 7.49997 22.3807 7.49997 21H11.6679Z" fill="white"/>
<path fill-rule="evenodd" clip-rule="evenodd" d="M16.0957 0C18.8793 8.29949e-05 20.1457 2.52314 19.5449 4.33691C19.2017 5.37154 18.4587 6.55 16.7451 7.0957C16.4648 7.18493 16.1622 7.25484 15.8359 7.30566C16.2038 7.73859 16.5201 8.22392 16.7646 8.76172C13.3747 10.2127 11 13.5793 11 17.5C11 18.3655 11.1181 19.2032 11.3349 20H0.499975V17.5781L2.70017 14.1875V11.2812C2.70017 9.67171 3.27512 8.36386 4.13083 7.3418C3.69746 7.29122 3.30379 7.20952 2.94626 7.0957C1.23267 6.54999 0.489613 5.37152 0.146459 4.33691C-0.454306 2.52317 0.812174 0.000145141 3.59568 0C4.30019 6.99779e-05 5.02496 0.231389 5.68943 0.541992C6.36578 0.858204 7.04973 1.28957 7.69138 1.76758C8.01775 2.01072 8.33844 2.27135 8.64841 2.54004C8.9758 2.2712 9.39477 2.11035 9.85056 2.11035C10.3036 2.11047 10.7194 2.27008 11.0459 2.53613C11.3547 2.26855 11.6749 2.00979 12 1.76758C12.6416 1.2896 13.3256 0.858195 14.0019 0.541992C14.6664 0.231387 15.3912 5.59532e-05 16.0957 0ZM16.0957 2.00977C15.8003 2.00983 15.3788 2.11412 14.8457 2.36328C14.3243 2.60701 13.7578 2.96086 13.1914 3.38281C12.6326 3.79911 12.098 4.26809 11.626 4.7334C12.1159 4.86291 12.6293 5.04719 13.1386 5.28711C14.546 5.47313 15.4997 5.38407 16.1416 5.17969C17.0923 4.87679 17.4501 4.29617 17.6474 3.70117C17.8422 3.11144 17.4343 2.00984 16.0957 2.00977ZM3.59568 2.00977C2.25712 2.0099 1.84914 3.11144 2.04392 3.70117C2.24123 4.29614 2.59917 4.87679 3.54978 5.17969C4.2586 5.40536 5.34761 5.49082 7.00779 5.21973C7.38142 5.05176 7.75575 4.9133 8.12009 4.80469C8.11528 4.79411 8.10905 4.78414 8.10447 4.77344C7.62275 4.29526 7.07449 3.81084 6.49997 3.38281C5.93352 2.96082 5.36706 2.60701 4.84568 2.36328C4.31262 2.11412 3.89109 2.00984 3.59568 2.00977Z" fill="white"/>
<path d="M29 17.5C29 22.1944 25.1944 26 20.5 26C15.8056 26 12 22.1944 12 17.5C12 12.8056 15.8056 9 20.5 9C25.1944 9 29 12.8056 29 17.5Z" fill="#FFA3EB"/>
<path d="M17.5 20.8281L20.3945 17.7812C20.7734 17.375 21.0625 17.0488 21.2617 16.8027C21.4648 16.5527 21.6191 16.3125 21.7246 16.082C21.8301 15.8516 21.8828 15.6094 21.8828 15.3555C21.8828 15.0703 21.8086 14.8203 21.6602 14.6055C21.5117 14.3867 21.3086 14.2168 21.0508 14.0957C20.7969 13.9746 20.5117 13.9141 20.1953 13.9141C19.8633 13.9141 19.5723 13.9824 19.3223 14.1191C19.0723 14.252 18.8789 14.4375 18.7422 14.6758C18.6094 14.9141 18.543 15.1914 18.543 15.5078H17.5469C17.543 15.0156 17.6562 14.5801 17.8867 14.2012C18.1211 13.8223 18.4434 13.5273 18.8535 13.3164C19.2637 13.1055 19.7227 13 20.2305 13C20.7344 13 21.1855 13.1035 21.584 13.3105C21.9863 13.5176 22.3008 13.8008 22.5273 14.1602C22.7539 14.5195 22.8672 14.918 22.8672 15.3555C22.8633 15.6797 22.8027 15.9902 22.6855 16.2871C22.5723 16.5801 22.377 16.9062 22.0996 17.2656C21.8223 17.625 21.4297 18.0664 20.9219 18.5898L18.9766 20.5938V20.6641H23.0195V21.6016H17.5117L17.5 20.8281Z" fill="white"/>
</svg>
