<?xml version="1.0" encoding="utf-8"?>
<!-- Generator: Adobe Illustrator 25.0.0, SVG Export Plug-In . SVG Version: 6.00 Build 0)  -->
<svg version="1.1" id="Layer_3" xmlns="http://www.w3.org/2000/svg" xmlns:xlink="http://www.w3.org/1999/xlink" x="0px" y="0px"
	 viewBox="0 0 35.2 27" style="enable-background:new 0 0 35.2 27;" xml:space="preserve">
<style type="text/css">
	.st0{fill:#FFFFFF;}
	.st1{fill:#FFA3EB;}
	.st2{fill:none;stroke:#000000;}
</style>
<path class="st0" d="M15.5,24.2l-6.7-6.5L19,5.2L6.5,15.5L0,9.2l24-9L15.5,24.2z"/>
<g>
	<path shape-rendering="crispEdges" class="st1" d="M25.8,8L25.8,8c5.2,0,9.5,4.3,9.5,9.5l0,0c0,5.2-4.3,9.5-9.5,9.5l0,0
		c-5.2,0-9.5-4.3-9.5-9.5l0,0C16.2,12.3,20.5,8,25.8,8z"/>
	<path shape-rendering="crispEdges" class="st2" d="M25.8,8.5L25.8,8.5c5,0,9,4,9,9l0,0c0,5-4,9-9,9l0,0c-5,0-9-4-9-9l0,0
		C16.8,12.5,20.8,8.5,25.8,8.5z"/>
	<path class="st0" d="M26.4,21.5h-1.1v-7.4h0l-2.1,1.4v-1.1l2.1-1.4h1.1V21.5z"/>
</g>
</svg>
