<svg width="34" height="31" viewBox="0 0 34 31" fill="none" xmlns="http://www.w3.org/2000/svg">
<path d="M16.0957 0C18.8793 3.68286e-05 20.1457 2.52313 19.5449 4.33691C19.2017 5.37156 18.4588 6.55001 16.7451 7.0957C16.4648 7.18494 16.1623 7.25484 15.8359 7.30566C16.709 8.33317 17.2998 9.65198 17.2998 11.2812V14.1875L19.5 17.5781V20H0.499977V17.5781L2.70017 14.1875V11.2812C2.70017 9.67171 3.27512 8.36386 4.13084 7.3418C3.69744 7.29121 3.30381 7.20953 2.94627 7.0957C1.23265 6.54999 0.489613 5.37153 0.146462 4.33691C-0.454308 2.52316 0.812163 0.000135481 3.59568 0C4.30022 5.32604e-05 5.02493 0.231375 5.68943 0.541992C6.36581 0.858209 7.04971 1.28955 7.69138 1.76758C8.01761 2.01061 8.33858 2.27051 8.64841 2.53906C8.97564 2.27078 9.39432 2.11035 9.84959 2.11035C10.3026 2.11045 10.7184 2.27012 11.0449 2.53613C11.354 2.26836 11.6746 2.00994 12 1.76758C12.6416 1.28958 13.3256 0.858204 14.0019 0.541992C14.6664 0.23137 15.3911 5.24569e-05 16.0957 0ZM3.59568 2.00977C2.2571 2.00989 1.84914 3.11144 2.04392 3.70117C2.24123 4.29615 2.59915 4.87679 3.54978 5.17969C4.25874 5.40542 5.348 5.49107 7.00877 5.21973C7.38185 5.05205 7.7553 4.91319 8.11912 4.80469C8.114 4.79344 8.10738 4.78287 8.10252 4.77148C7.62126 4.29393 7.07373 3.81027 6.49998 3.38281C5.9335 2.9608 5.36708 2.60702 4.84568 2.36328C4.31257 2.1141 3.8911 2.00982 3.59568 2.00977ZM16.0957 2.00977C15.8003 2.00982 15.3788 2.11409 14.8457 2.36328C14.3243 2.60701 13.7578 2.96084 13.1914 3.38281C12.6326 3.79913 12.098 4.26808 11.626 4.7334C12.1159 4.86292 12.6293 5.04717 13.1386 5.28711C14.546 5.47308 15.4997 5.38407 16.1416 5.17969C17.0923 4.8768 17.4501 4.29618 17.6474 3.70117C17.8423 3.11143 17.4344 2.0098 16.0957 2.00977Z" fill="white"/>
<path d="M12.5 21C12.5 22.3807 11.3807 23.5 10 23.5C8.61929 23.5 7.5 22.3807 7.5 21H12.5Z" fill="white"/>
<g filter="url(#filter0_d_836_161)">
<rect x="11" y="8" width="19" height="19" rx="9.5" fill="#FFA3EB" shape-rendering="crispEdges"/>
<rect x="11.5" y="8.5" width="18" height="18" rx="9" stroke="black" shape-rendering="crispEdges"/>
<path d="M17.2637 20.7266L20.1582 17.6797C20.5371 17.2734 20.8262 16.9473 21.0254 16.7012C21.2285 16.4512 21.3828 16.2109 21.4883 15.9805C21.5938 15.75 21.6465 15.5078 21.6465 15.2539C21.6465 14.9688 21.5723 14.7188 21.4238 14.5039C21.2754 14.2852 21.0723 14.1152 20.8145 13.9941C20.5605 13.873 20.2754 13.8125 19.959 13.8125C19.627 13.8125 19.3359 13.8809 19.0859 14.0176C18.8359 14.1504 18.6426 14.3359 18.5059 14.5742C18.373 14.8125 18.3066 15.0898 18.3066 15.4062H17.3105C17.3066 14.9141 17.4199 14.4785 17.6504 14.0996C17.8848 13.7207 18.207 13.4258 18.6172 13.2148C19.0273 13.0039 19.4863 12.8984 19.9941 12.8984C20.498 12.8984 20.9492 13.002 21.3477 13.209C21.75 13.416 22.0645 13.6992 22.291 14.0586C22.5176 14.418 22.6309 14.8164 22.6309 15.2539C22.627 15.5781 22.5664 15.8887 22.4492 16.1855C22.3359 16.4785 22.1406 16.8047 21.8633 17.1641C21.5859 17.5234 21.1934 17.9648 20.6855 18.4883L18.7402 20.4922V20.5625H22.7832V21.5H17.2754L17.2637 20.7266Z" fill="white"/>
</g>
<defs>
<filter id="filter0_d_836_161" x="7" y="4" width="27" height="27" filterUnits="userSpaceOnUse" color-interpolation-filters="sRGB">
<feFlood flood-opacity="0" result="BackgroundImageFix"/>
<feColorMatrix in="SourceAlpha" type="matrix" values="0 0 0 0 0 0 0 0 0 0 0 0 0 0 0 0 0 0 127 0" result="hardAlpha"/>
<feOffset/>
<feGaussianBlur stdDeviation="2"/>
<feComposite in2="hardAlpha" operator="out"/>
<feColorMatrix type="matrix" values="0 0 0 0 0 0 0 0 0 0 0 0 0 0 0 0 0 0 0.25 0"/>
<feBlend mode="normal" in2="BackgroundImageFix" result="effect1_dropShadow_836_161"/>
<feBlend mode="normal" in="SourceGraphic" in2="effect1_dropShadow_836_161" result="shape"/>
</filter>
</defs>
</svg>
