<svg width="20" height="19" viewBox="0 0 20 19" fill="none" xmlns="http://www.w3.org/2000/svg">
<path d="M6.33366 18.25C6.83992 18.25 7.25033 17.8582 7.25033 17.375C7.25033 16.8918 6.83992 16.5 6.33366 16.5C5.8274 16.5 5.41699 16.8918 5.41699 17.375C5.41699 17.8582 5.8274 18.25 6.33366 18.25Z" stroke="white" stroke-width="1.5" stroke-linecap="round" stroke-linejoin="round"/>
<path d="M16.4167 18.25C16.9229 18.25 17.3333 17.8582 17.3333 17.375C17.3333 16.8918 16.9229 16.5 16.4167 16.5C15.9104 16.5 15.5 16.8918 15.5 17.375C15.5 17.8582 15.9104 18.25 16.4167 18.25Z" stroke="white" stroke-width="1.5" stroke-linecap="round" stroke-linejoin="round"/>
<path d="M0.878906 0.793945H2.71224L5.15057 11.6614C5.24002 12.0594 5.47202 12.4152 5.80664 12.6676C6.14126 12.9199 6.55757 13.053 6.98391 13.0439H15.9489C16.3662 13.0433 16.7707 12.9068 17.0957 12.6571C17.4207 12.4073 17.6467 12.0592 17.7364 11.6702L19.2489 5.16895H3.69307" stroke="white" stroke-width="1.5" stroke-linecap="round" stroke-linejoin="round"/>
</svg>
