<svg width="40" height="40" viewBox="0 0 40 40" fill="none" xmlns="http://www.w3.org/2000/svg">
<path d="M21.6368 8.4541C21.6366 4.62603 19.1654 1.63574 15.2657 1.63574C11.3662 1.63592 8.89567 4.62614 8.89554 8.4541H21.6368ZM4.56058 10.0908C3.75308 10.0908 3.0731 10.7123 2.97855 11.5361L1.60452 23.5371C1.49372 24.5095 2.23353 25.3632 3.18656 25.3633H26.8145C27.7674 25.3631 28.5073 24.5094 28.3965 23.5371L27.0225 11.5361C26.928 10.7123 26.2479 10.0909 25.4405 10.0908H8.89066V13.5273H19.0098C19.7109 13.5274 20.7421 13.7424 21.6192 14.4072C22.5358 15.1023 23.2245 16.2475 23.2246 17.9453C23.2246 19.6433 22.5358 20.7883 21.6192 21.4834C20.742 22.1484 19.711 22.3632 19.0098 22.3633H9.15531C8.12924 22.3631 7.29788 21.5083 7.29788 20.4541V10.0908H4.56058ZM8.89066 20.4541C8.89066 20.6046 9.00887 20.7273 9.15531 20.7275H19.0098C19.448 20.7275 20.1269 20.5817 20.6739 20.167C21.1813 19.7821 21.6319 19.1267 21.6319 17.9453C21.6317 16.7642 21.1812 16.1094 20.6739 15.7246C20.1269 15.3099 19.4481 15.1641 19.0098 15.1641H8.89066V20.4541ZM25.4405 8.4541C27.0556 8.45423 28.4147 9.69669 28.6035 11.3447L29.9776 23.3447C30.2003 25.2902 28.7211 26.9998 26.8145 27H3.18656L3.00784 26.9951C1.24712 26.8958 -0.102994 25.3356 0.00686759 23.5273L0.0234692 23.3447L1.39652 11.3447C1.57349 9.79956 2.77975 8.61123 4.26077 8.46875L4.56058 8.4541H7.30277C7.3029 3.84759 10.3694 0.000181327 15.2657 0C20.1621 0 23.2294 3.84748 23.2295 8.4541H25.4405Z" fill="#F5F5F5"/>
<g filter="url(#filter0_d_1423_515)">
<rect x="16.9997" y="17" width="19" height="19" rx="9.5" fill="#FFA3EB" shape-rendering="crispEdges"/>
<rect x="17.4997" y="17.5" width="18" height="18" rx="9" stroke="black" shape-rendering="crispEdges"/>
<path d="M23.2634 29.7266L26.1579 26.6797C26.5369 26.2734 26.8259 25.9473 27.0251 25.7012C27.2283 25.4512 27.3826 25.2109 27.488 24.9805C27.5935 24.75 27.6462 24.5078 27.6462 24.2539C27.6462 23.9688 27.572 23.7188 27.4236 23.5039C27.2751 23.2852 27.072 23.1152 26.8142 22.9941C26.5603 22.873 26.2751 22.8125 25.9587 22.8125C25.6267 22.8125 25.3357 22.8809 25.0857 23.0176C24.8357 23.1504 24.6423 23.3359 24.5056 23.5742C24.3728 23.8125 24.3064 24.0898 24.3064 24.4062H23.3103C23.3064 23.9141 23.4197 23.4785 23.6501 23.0996C23.8845 22.7207 24.2068 22.4258 24.6169 22.2148C25.0271 22.0039 25.4861 21.8984 25.9939 21.8984C26.4978 21.8984 26.949 22.002 27.3474 22.209C27.7497 22.416 28.0642 22.6992 28.2908 23.0586C28.5173 23.418 28.6306 23.8164 28.6306 24.2539C28.6267 24.5781 28.5662 24.8887 28.449 25.1855C28.3357 25.4785 28.1404 25.8047 27.863 26.1641C27.5857 26.5234 27.1931 26.9648 26.6853 27.4883L24.74 29.4922V29.5625H28.7829V30.5H23.2751L23.2634 29.7266Z" fill="white"/>
</g>
<defs>
<filter id="filter0_d_1423_515" x="12.9997" y="13" width="27" height="27" filterUnits="userSpaceOnUse" color-interpolation-filters="sRGB">
<feFlood flood-opacity="0" result="BackgroundImageFix"/>
<feColorMatrix in="SourceAlpha" type="matrix" values="0 0 0 0 0 0 0 0 0 0 0 0 0 0 0 0 0 0 127 0" result="hardAlpha"/>
<feOffset/>
<feGaussianBlur stdDeviation="2"/>
<feComposite in2="hardAlpha" operator="out"/>
<feColorMatrix type="matrix" values="0 0 0 0 0 0 0 0 0 0 0 0 0 0 0 0 0 0 0.25 0"/>
<feBlend mode="normal" in2="BackgroundImageFix" result="effect1_dropShadow_1423_515"/>
<feBlend mode="normal" in="SourceGraphic" in2="effect1_dropShadow_1423_515" result="shape"/>
</filter>
</defs>
</svg>
