<svg width="35" height="26" viewBox="0 0 35 26" fill="none" xmlns="http://www.w3.org/2000/svg">
<path fill-rule="evenodd" clip-rule="evenodd" d="M12.721 0C16.8011 0.000144072 19.3575 3.20632 19.3578 7.04492H21.1996C22.1997 7.04503 23.0814 7.61732 23.5335 8.47461C23.1022 8.6163 22.6842 8.78699 22.2826 8.98633C22.0408 8.63546 21.6438 8.40927 21.1996 8.40918H7.40855V11.2734H15.8412C16.4255 11.2735 17.2851 11.4527 18.016 12.0068C18.1773 12.1292 18.3293 12.2691 18.4701 12.4258C18.2037 12.8464 17.9675 13.2881 17.7689 13.75C17.6237 13.4663 17.4319 13.2583 17.2279 13.1035C16.7723 12.7581 16.2064 12.6368 15.8412 12.6367H7.40855V17.0459C7.4087 17.1712 7.50725 17.2724 7.62925 17.2725H15.8412C16.1521 17.2724 16.6071 17.1826 17.0169 16.9434C17.0063 17.1276 16.9994 17.3131 16.9994 17.5C16.9994 17.8097 17.0153 18.1159 17.0443 18.418C16.603 18.5738 16.1772 18.6367 15.8412 18.6367H7.62925C6.77422 18.6366 6.08155 17.9243 6.0814 17.0459V8.40918H3.80015C3.12726 8.40921 2.56059 8.92674 2.48179 9.61328L1.33628 19.6133C1.24371 20.4238 1.86126 21.1357 2.65562 21.1357H17.722C17.9193 21.6114 18.1546 22.067 18.4232 22.5H2.65562L2.5062 22.4951C1.0389 22.4123 -0.0864449 21.1124 0.00522655 19.6055L0.0188984 19.4541L1.16343 9.4541C1.31092 8.16654 2.31605 7.17543 3.55015 7.05664L3.80015 7.04492H6.0853C6.08555 3.20631 8.64096 0.000140103 12.721 0ZM12.721 1.36328C9.47157 1.36342 7.41269 3.85511 7.41245 7.04492H18.0306C18.0304 3.85512 15.9705 1.36342 12.721 1.36328Z" fill="white"/>
<path d="M34.9991 17.5C34.9991 22.1944 31.1936 26 26.4991 26C21.8047 26 17.9991 22.1944 17.9991 17.5C17.9991 12.8056 21.8047 9 26.4991 9C31.1936 9 34.9991 12.8056 34.9991 17.5Z" fill="#FFA3EB"/>
<path d="M23.4991 20.8281L26.3937 17.7812C26.7726 17.375 27.0616 17.0488 27.2609 16.8027C27.464 16.5527 27.6183 16.3125 27.7237 16.082C27.8292 15.8516 27.882 15.6094 27.882 15.3555C27.882 15.0703 27.8077 14.8203 27.6593 14.6055C27.5109 14.3867 27.3077 14.2168 27.0499 14.0957C26.796 13.9746 26.5109 13.9141 26.1945 13.9141C25.8624 13.9141 25.5714 13.9824 25.3214 14.1191C25.0714 14.252 24.878 14.4375 24.7413 14.6758C24.6085 14.9141 24.5421 15.1914 24.5421 15.5078H23.546C23.5421 15.0156 23.6554 14.5801 23.8859 14.2012C24.1202 13.8223 24.4425 13.5273 24.8527 13.3164C25.2628 13.1055 25.7218 13 26.2296 13C26.7335 13 27.1847 13.1035 27.5831 13.3105C27.9855 13.5176 28.2999 13.8008 28.5265 14.1602C28.753 14.5195 28.8663 14.918 28.8663 15.3555C28.8624 15.6797 28.8019 15.9902 28.6847 16.2871C28.5714 16.5801 28.3761 16.9062 28.0987 17.2656C27.8214 17.625 27.4288 18.0664 26.921 18.5898L24.9757 20.5938V20.6641H29.0187V21.6016H23.5109L23.4991 20.8281Z" fill="white"/>
</svg>
