<?xml version="1.0" encoding="utf-8"?>
<!-- Generator: Adobe Illustrator 25.0.0, SVG Export Plug-In . SVG Version: 6.00 Build 0)  -->
<svg version="1.1" id="Layer_1" xmlns="http://www.w3.org/2000/svg" xmlns:xlink="http://www.w3.org/1999/xlink" x="0px" y="0px"
	 viewBox="0 0 35 26" style="enable-background:new 0 0 35 26;" xml:space="preserve">
<style type="text/css">
	.st0{fill-rule:evenodd;clip-rule:evenodd;}
	.st1{fill:#FFA3EB;}
</style>
<path class="st0" d="M12.7,0c4.1,0,6.6,3.2,6.6,7h1.8c1,0,1.9,0.6,2.3,1.4c-0.4,0.1-0.8,0.3-1.3,0.5c-0.2-0.4-0.6-0.6-1.1-0.6H7.4
	v2.9h8.4c0.6,0,1.4,0.2,2.2,0.7c0.2,0.1,0.3,0.3,0.5,0.4c-0.3,0.4-0.5,0.9-0.7,1.3c-0.1-0.3-0.3-0.5-0.5-0.6c-0.5-0.3-1-0.5-1.4-0.5
	H7.4V17c0,0.1,0.1,0.2,0.2,0.2h8.2c0.3,0,0.8-0.1,1.2-0.3c0,0.2,0,0.4,0,0.6c0,0.3,0,0.6,0,0.9c-0.4,0.2-0.9,0.2-1.2,0.2H7.6
	c-0.9,0-1.5-0.7-1.5-1.6V8.4H3.8c-0.7,0-1.2,0.5-1.3,1.2l-1.1,10c-0.1,0.8,0.5,1.5,1.3,1.5h15.1c0.2,0.5,0.4,0.9,0.7,1.4H2.7l-0.1,0
	C1,22.4-0.1,21.1,0,19.6l0-0.2l1.1-10c0.1-1.3,1.2-2.3,2.4-2.4l0.2,0h2.3C6.1,3.2,8.6,0,12.7,0z M12.7,1.4C9.5,1.4,7.4,3.9,7.4,7H18
	C18,3.9,16,1.4,12.7,1.4z"/>
<path class="st1" d="M26.5,9c-4.7,0-8.5,3.8-8.5,8.5s3.8,8.5,8.5,8.5c4.7,0,8.5-3.8,8.5-8.5S31.2,9,26.5,9z M29,21.6h-5.5l0-0.8
	l2.9-3c0.4-0.4,0.7-0.7,0.9-1c0.2-0.2,0.4-0.5,0.5-0.7c0.1-0.2,0.2-0.5,0.2-0.7c0-0.3-0.1-0.5-0.2-0.8c-0.1-0.2-0.4-0.4-0.6-0.5
	c-0.3-0.1-0.5-0.2-0.9-0.2c-0.3,0-0.6,0.1-0.9,0.2c-0.2,0.1-0.4,0.3-0.6,0.6c-0.1,0.2-0.2,0.5-0.2,0.8h-1c0-0.5,0.1-0.9,0.3-1.3
	c0.2-0.4,0.6-0.7,1-0.9c0.4-0.2,0.9-0.3,1.4-0.3c0.5,0,1,0.1,1.4,0.3c0.4,0.2,0.7,0.5,0.9,0.8c0.2,0.4,0.3,0.8,0.3,1.2
	c0,0.3-0.1,0.6-0.2,0.9c-0.1,0.3-0.3,0.6-0.6,1c-0.3,0.4-0.7,0.8-1.2,1.3l-1.9,2v0.1h4V21.6z"/>
</svg>
