<svg width="18" height="18" viewBox="0 0 18 18" fill="none" xmlns="http://www.w3.org/2000/svg">
<path d="M0.75 9C0.75 10.6317 1.23385 12.2267 2.14038 13.5835C3.0469 14.9402 4.33537 15.9976 5.84286 16.622C7.35035 17.2464 9.00915 17.4098 10.6095 17.0915C12.2098 16.7732 13.6798 15.9874 14.8336 14.8336C15.9874 13.6798 16.7732 12.2098 17.0915 10.6095C17.4098 9.00915 17.2464 7.35035 16.622 5.84286C15.9976 4.33537 14.9402 3.0469 13.5835 2.14038C12.2267 1.23385 10.6317 0.75 9 0.75C6.69362 0.758676 4.47989 1.65862 2.82167 3.26167L0.75 5.33333" stroke="white" stroke-width="1.5" stroke-linecap="round" stroke-linejoin="round"/>
<path d="M0.75 0.75V5.33333H5.33333" stroke="white" stroke-width="1.5" stroke-linecap="round" stroke-linejoin="round"/>
<path d="M9 4.4165V8.99984L12.6667 10.8332" stroke="white" stroke-width="1.5" stroke-linecap="round" stroke-linejoin="round"/>
</svg>
