<svg width="27" height="25" viewBox="0 0 27 25" fill="none" xmlns="http://www.w3.org/2000/svg">
<path d="M11.7529 0.561473C12.7977 -0.187076 14.2034 -0.18724 15.248 0.561473L25.748 8.08784C26.534 8.65127 27 9.55928 27 10.5263V21.6425C26.9999 23.2993 25.6568 24.6425 24 24.6425H3C1.34322 24.6425 6.6465e-05 23.2993 0 21.6425V10.5263C2.79969e-05 9.55925 0.466923 8.65124 1.25293 8.08784L9.40039 2.24702V21H15.2607C17.3538 21 18.4004 19.986 18.4004 17.9589V13.5C18.4004 11.4729 17.3538 10.4589 15.2607 10.4589H11.0752V1.04683L11.7529 0.561473Z" fill="white"/>
<path d="M15.2607 11.8779C16.2373 11.8779 16.7254 12.3512 16.7256 13.2968V18.1621C16.7256 19.108 16.2375 19.581 15.2607 19.581H11.0752V11.8779H15.2607Z" fill="white"/>
</svg>
