<svg width="27" height="25" viewBox="0 0 27 25" fill="none" xmlns="http://www.w3.org/2000/svg">
<path d="M11.7529 0.561594C12.7977 -0.187135 14.2033 -0.187261 15.248 0.561594L25.748 8.08796C26.5337 8.65131 26.9998 9.55868 27 10.5255V21.6417C27 23.2985 25.6569 24.6417 24 24.6417H3C1.34315 24.6416 -4.79651e-05 23.2985 1.28466e-09 21.6417V10.5255C0.000163539 9.55855 0.467037 8.65128 1.25293 8.08796L9.40039 2.24714V20.9991H15.2607C17.3536 20.9991 18.4002 19.9858 18.4004 17.9591V13.4991C18.4004 11.4721 17.3537 10.4591 15.2607 10.4591H11.0752V1.04695L11.7529 0.561594Z" fill="#7E7E7E"/>
<path d="M15.2607 11.878C16.2375 11.878 16.7256 12.351 16.7256 13.2969V18.1612C16.7256 19.1071 16.2375 19.5801 15.2607 19.5801H11.0752V11.878H15.2607Z" fill="#7E7E7E"/>
</svg>
