<svg width="19" height="19" viewBox="0 0 19 19" fill="none" xmlns="http://www.w3.org/2000/svg">
<path d="M16.2083 0.875H2.79167C1.73312 0.875 0.875 1.73312 0.875 2.79167V16.2083C0.875 17.2669 1.73312 18.125 2.79167 18.125H16.2083C17.2669 18.125 18.125 17.2669 18.125 16.2083V2.79167C18.125 1.73312 17.2669 0.875 16.2083 0.875Z" stroke="#7E7E7E" stroke-linecap="round" stroke-linejoin="round"/>
<path d="M6.62516 8.54183C7.68371 8.54183 8.54183 7.68371 8.54183 6.62516C8.54183 5.56662 7.68371 4.7085 6.62516 4.7085C5.56662 4.7085 4.7085 5.56662 4.7085 6.62516C4.7085 7.68371 5.56662 8.54183 6.62516 8.54183Z" stroke="#7E7E7E" stroke-linecap="round" stroke-linejoin="round"/>
<path d="M18.125 12.375L15.1676 9.41762C14.8082 9.0583 14.3207 8.85645 13.8125 8.85645C13.3043 8.85645 12.8168 9.0583 12.4574 9.41762L3.75 18.125" stroke="#7E7E7E" stroke-linecap="round" stroke-linejoin="round"/>
</svg>
