<svg width="20" height="17" viewBox="0 0 20 17" fill="none" xmlns="http://www.w3.org/2000/svg">
<path d="M19.7914 7.60791L12.6484 0.216772C12.5486 0.113344 12.4213 0.0428756 12.2828 0.0142791C12.1442 -0.0143173 12.0006 0.000242829 11.87 0.0561179C11.7395 0.111993 11.6279 0.206673 11.5493 0.328185C11.4708 0.449697 11.4288 0.592583 11.4287 0.738771V4.46667C9.11262 4.67178 6.55454 5.84512 4.45003 7.69198C1.91605 9.91671 0.338345 12.7835 0.00708871 15.764C-0.0187977 15.9957 0.0266083 16.23 0.136845 16.4335C0.247081 16.6369 0.416531 16.7993 0.62108 16.8973C0.825628 16.9953 1.05485 17.0241 1.27613 16.9796C1.49741 16.935 1.69947 16.8194 1.85355 16.6491C2.83571 15.5672 6.33042 12.1461 11.4287 11.8449V15.521C11.4288 15.6672 11.4708 15.8101 11.5493 15.9316C11.6279 16.0531 11.7395 16.1478 11.87 16.2037C12.0006 16.2596 12.1442 16.2741 12.2828 16.2455C12.4213 16.2169 12.5486 16.1465 12.6484 16.043L19.7914 8.6519C19.925 8.51334 20 8.32562 20 8.1299C20 7.93419 19.925 7.74646 19.7914 7.60791ZM12.8573 13.737V11.0864C12.8573 10.8903 12.7821 10.7023 12.6481 10.5637C12.5142 10.4251 12.3325 10.3472 12.143 10.3472C9.63585 10.3472 7.19383 11.0245 4.88486 12.3613C3.7089 13.0452 2.61322 13.8674 1.61962 14.8115C2.13749 12.6089 3.44287 10.5145 5.37416 8.81913C7.44741 6.99998 9.97782 5.91256 12.143 5.91256C12.3325 5.91256 12.5142 5.83469 12.6481 5.69608C12.7821 5.55747 12.8573 5.36948 12.8573 5.17345V2.52373L18.2762 8.1299L12.8573 13.737Z" fill="white"/>
</svg>
