<svg width="18" height="19" viewBox="0 0 18 19" fill="none" xmlns="http://www.w3.org/2000/svg">
<path d="M11.7458 6.41055C11.8068 6.47149 11.8552 6.54387 11.8882 6.62354C11.9213 6.70321 11.9382 6.7886 11.9382 6.87484C11.9382 6.96108 11.9213 7.04648 11.8882 7.12615C11.8552 7.20581 11.8068 7.27819 11.7458 7.33914L6.49578 12.5891C6.43481 12.6501 6.36242 12.6985 6.28276 12.7315C6.20309 12.7645 6.11771 12.7815 6.03148 12.7815C5.94526 12.7815 5.85987 12.7645 5.78021 12.7315C5.70054 12.6985 5.62816 12.6501 5.56719 12.5891C5.50621 12.5282 5.45785 12.4558 5.42485 12.3761C5.39185 12.2965 5.37487 12.2111 5.37487 12.1248C5.37487 12.0386 5.39185 11.9532 5.42485 11.8736C5.45785 11.7939 5.50621 11.7215 5.56719 11.6605L10.8172 6.41055C10.8781 6.34953 10.9505 6.30113 11.0302 6.2681C11.1098 6.23507 11.1952 6.21808 11.2815 6.21808C11.3677 6.21808 11.4531 6.23507 11.5328 6.2681C11.6125 6.30113 11.6848 6.34953 11.7458 6.41055ZM15.8424 2.31391C15.4158 1.88729 14.9094 1.54887 14.352 1.31798C13.7947 1.0871 13.1973 0.968262 12.594 0.968262C11.9907 0.968262 11.3933 1.0871 10.8359 1.31798C10.2786 1.54887 9.77212 1.88729 9.34554 2.31391L6.87969 4.77894C6.75655 4.90208 6.68737 5.0691 6.68737 5.24324C6.68737 5.41739 6.75655 5.5844 6.87969 5.70754C7.00283 5.83068 7.16984 5.89986 7.34398 5.89986C7.51813 5.89986 7.68514 5.83068 7.80828 5.70754L10.2741 3.2466C10.8917 2.64256 11.7226 2.30645 12.5865 2.31121C13.4504 2.31597 14.2775 2.66121 14.8884 3.27201C15.4993 3.88281 15.8447 4.70989 15.8496 5.57376C15.8545 6.43763 15.5186 7.26858 14.9146 7.88629L12.448 10.3521C12.3248 10.4752 12.2556 10.6421 12.2555 10.8162C12.2555 10.9902 12.3245 11.1572 12.4476 11.2803C12.5706 11.4035 12.7375 11.4727 12.9116 11.4728C13.0856 11.4728 13.2526 11.4038 13.3757 11.2807L15.8424 8.81078C16.269 8.3842 16.6075 7.87777 16.8383 7.3204C17.0692 6.76303 17.1881 6.16564 17.1881 5.56234C17.1881 4.95904 17.0692 4.36165 16.8383 3.80428C16.6075 3.24691 16.269 2.74048 15.8424 2.31391ZM9.50469 13.2913L7.03883 15.7572C6.73538 16.0675 6.37339 16.3144 5.97383 16.4838C5.57427 16.6532 5.14507 16.7417 4.71109 16.7441C4.2771 16.7465 3.84696 16.6628 3.44556 16.4978C3.04415 16.3328 2.67947 16.0898 2.37262 15.7829C2.06577 15.476 1.82285 15.1113 1.65793 14.7098C1.493 14.3084 1.40935 13.8782 1.41182 13.4442C1.41429 13.0103 1.50282 12.5811 1.6723 12.1815C1.84177 11.782 2.08882 11.4201 2.39914 11.1167L4.86418 8.65164C4.98732 8.5285 5.0565 8.36149 5.0565 8.18734C5.0565 8.0132 4.98732 7.84618 4.86418 7.72305C4.74104 7.59991 4.57403 7.53073 4.39988 7.53073C4.22574 7.53073 4.05872 7.59991 3.93559 7.72305L1.47055 10.1889C0.609008 11.0504 0.125 12.2189 0.125 13.4373C0.125 14.6557 0.609008 15.8242 1.47055 16.6858C2.33209 17.5473 3.50058 18.0313 4.71898 18.0313C5.93738 18.0313 7.10588 17.5473 7.96742 16.6858L10.4333 14.2191C10.5563 14.096 10.6254 13.929 10.6253 13.7549C10.6252 13.5809 10.556 13.4139 10.4329 13.2909C10.3097 13.1679 10.1428 13.0988 9.96869 13.0989C9.79462 13.099 9.62772 13.1682 9.50469 13.2913Z" fill="#7E7E7E"/>
</svg>
