<?xml version="1.0" encoding="utf-8"?>
<!-- Generator: Adobe Illustrator 25.0.0, SVG Export Plug-In . SVG Version: 6.00 Build 0)  -->
<svg version="1.1" id="Layer_1" xmlns="http://www.w3.org/2000/svg" xmlns:xlink="http://www.w3.org/1999/xlink" x="0px" y="0px"
	 viewBox="0 0 13 16" style="enable-background:new 0 0 13 16;" xml:space="preserve">
<style type="text/css">
	.st0{fill:#FFFFFF;}
</style>
<path class="st0" d="M6.5,0c1.7,0,3.4,0.7,4.6,1.9C12.3,3.1,13,4.8,13,6.5c0,2-1.1,4.1-2.4,5.7c-1.2,1.6-2.7,2.9-3.4,3.5
	c0,0,0,0,0,0C7.1,15.9,6.8,16,6.6,16l-0.1,0c-0.3,0-0.5-0.1-0.8-0.3c0,0,0,0,0,0c-0.7-0.6-2.1-1.9-3.4-3.5C1.1,10.6,0,8.5,0,6.5
	c0-1.7,0.7-3.4,1.9-4.6C3.1,0.7,4.8,0,6.5,0z M6.5,3.5c-1.7,0-3,1.3-3,3s1.3,3,3,3s3-1.3,3-3S8.2,3.5,6.5,3.5z"/>
</svg>
