<svg width="13" height="16" viewBox="0 0 13 16" fill="none" xmlns="http://www.w3.org/2000/svg">
<path d="M6.5 0C8.22391 0 9.87769 0.685296 11.0967 1.9043C12.3154 3.12323 13 4.77633 13 6.5C13 8.54099 11.8775 10.5632 10.6465 12.1807C9.40395 13.8132 7.98742 15.1144 7.27734 15.7275C7.26883 15.7349 7.25997 15.7423 7.25098 15.749C7.06158 15.8914 6.83635 15.977 6.60156 15.9961L6.5 16C6.22907 16 5.96559 15.9118 5.74902 15.749C5.74003 15.7423 5.73117 15.7349 5.72266 15.7275C5.01258 15.1144 3.59605 13.8132 2.35352 12.1807C1.12248 10.5632 0 8.54099 0 6.5C1.98232e-05 4.77633 0.684649 3.12323 1.90332 1.9043C3.12231 0.685296 4.77609 0 6.5 0ZM6.5 3.5C4.84315 3.5 3.5 4.84315 3.5 6.5C3.5 8.15685 4.84315 9.5 6.5 9.5C8.15685 9.5 9.5 8.15685 9.5 6.5C9.5 4.84315 8.15685 3.5 6.5 3.5Z" fill="#D9D9D9"/>
</svg>
