<svg width="91" height="17" viewBox="0 0 91 17" fill="none" xmlns="http://www.w3.org/2000/svg">
<path d="M0.640015 15.9999V1.99988H8.28001C9.45335 1.99988 10.4333 2.13988 11.22 2.41988C12.0067 2.68655 12.6 3.07988 13 3.59988C13.4 4.11988 13.6 4.75988 13.6 5.51988C13.6 6.25322 13.3533 6.89322 12.86 7.43988C12.3667 7.97322 11.6467 8.35322 10.7 8.57988L10.84 8.19988C11.44 8.33322 12.0067 8.54655 12.54 8.83988C13.0733 9.13322 13.5067 9.53322 13.84 10.0399C14.1733 10.5332 14.34 11.1465 14.34 11.8799C14.34 12.6932 14.1733 13.3665 13.84 13.8999C13.52 14.4332 13.0867 14.8532 12.54 15.1599C12.0067 15.4666 11.4133 15.6866 10.76 15.8199C10.1067 15.9399 9.45335 15.9999 8.80002 15.9999H0.640015ZM2.80001 13.9199H8.88002C9.52002 13.9199 10.08 13.8466 10.56 13.6999C11.0533 13.5532 11.44 13.3265 11.72 13.0199C12 12.6999 12.14 12.3065 12.14 11.8399C12.14 11.3065 11.9667 10.8932 11.62 10.5999C11.2733 10.3065 10.84 10.0999 10.32 9.97988C9.80002 9.84655 9.28668 9.77988 8.78001 9.77988H2.80001V13.9199ZM2.80001 7.67988H8.68002C9.16001 7.67988 9.60668 7.60655 10.02 7.45988C10.4333 7.31322 10.76 7.09988 11 6.81988C11.2533 6.53988 11.38 6.21322 11.38 5.83988C11.38 5.19988 11.0933 4.74655 10.52 4.47988C9.96001 4.21322 9.26668 4.07988 8.44001 4.07988H2.80001V7.67988Z" fill="white"/>
<path d="M19.4024 11.1799V9.25988H26.5624V11.1799H19.4024Z" fill="white"/>
<path d="M37.4303 16.1999C36.2037 16.1999 35.077 16.0466 34.0503 15.7399C33.0237 15.4332 32.1637 14.9132 31.4703 14.1799L32.8703 12.8799C33.4037 13.3732 34.037 13.7665 34.7703 14.0599C35.5037 14.3399 36.3103 14.4799 37.1903 14.4799C37.537 14.4799 37.897 14.4665 38.2703 14.4399C38.657 14.3999 39.0237 14.3332 39.3703 14.2399C39.717 14.1466 39.997 14.0132 40.2103 13.8399C40.4237 13.6665 40.5303 13.4399 40.5303 13.1599C40.5303 12.7066 40.1503 12.3799 39.3903 12.1799C39.0037 12.0732 38.5903 11.9799 38.1503 11.8999C37.7103 11.8065 37.2437 11.7266 36.7503 11.6599C35.937 11.5132 35.1837 11.3599 34.4903 11.1999C33.8103 11.0265 33.237 10.7799 32.7703 10.4599C32.437 10.2199 32.177 9.92655 31.9903 9.57988C31.8037 9.23322 31.7103 8.81322 31.7103 8.31988C31.7103 7.85322 31.8437 7.43322 32.1103 7.05988C32.3903 6.68655 32.7703 6.36655 33.2503 6.09988C33.7303 5.83322 34.2903 5.63322 34.9303 5.49988C35.5837 5.35322 36.2903 5.27988 37.0503 5.27988C37.6637 5.27988 38.3103 5.33988 38.9903 5.45988C39.6837 5.56655 40.3437 5.74655 40.9703 5.99988C41.597 6.23988 42.1237 6.55988 42.5503 6.95988L41.4703 8.37988C41.097 8.11322 40.657 7.87322 40.1503 7.65988C39.6437 7.44655 39.1237 7.27988 38.5903 7.15988C38.057 7.03988 37.5437 6.97988 37.0503 6.97988C36.717 6.97988 36.357 6.99988 35.9703 7.03988C35.597 7.06655 35.2437 7.12655 34.9103 7.21988C34.577 7.31322 34.3037 7.44655 34.0903 7.61988C33.877 7.77988 33.7703 7.98655 33.7703 8.23988C33.7703 8.39988 33.817 8.54655 33.9103 8.67988C34.017 8.79988 34.157 8.91322 34.3303 9.01988C34.6637 9.21988 35.097 9.38655 35.6303 9.51988C36.177 9.63988 36.7703 9.75322 37.4103 9.85988C38.1437 9.96655 38.8637 10.1065 39.5703 10.2799C40.277 10.4399 40.8837 10.6665 41.3903 10.9599C41.7637 11.1732 42.057 11.4265 42.2703 11.7199C42.497 12.0132 42.6103 12.3665 42.6103 12.7799C42.6103 13.5265 42.377 14.1532 41.9103 14.6599C41.4437 15.1666 40.817 15.5532 40.0303 15.8199C39.257 16.0732 38.3903 16.1999 37.4303 16.1999Z" fill="white"/>
<path d="M49.3878 15.9999V5.49988H51.4478V15.9999H49.3878ZM50.3878 2.97988C49.9478 2.97988 49.6078 2.86655 49.3678 2.63988C49.1278 2.41322 49.0078 2.09322 49.0078 1.67988C49.0078 1.29322 49.1278 0.979882 49.3678 0.739883C49.6212 0.499883 49.9612 0.379883 50.3878 0.379883C50.8278 0.379883 51.1678 0.493216 51.4078 0.719882C51.6478 0.946549 51.7678 1.26655 51.7678 1.67988C51.7678 2.06655 51.6412 2.37988 51.3878 2.61988C51.1478 2.85988 50.8145 2.97988 50.3878 2.97988Z" fill="white"/>
<path d="M64.4095 16.1999C63.1429 16.1999 62.0362 15.9665 61.0895 15.4999C60.1562 15.0332 59.4362 14.3865 58.9295 13.5599C58.4229 12.7332 58.1695 11.7932 58.1695 10.7399C58.1695 9.67322 58.4362 8.73322 58.9695 7.91988C59.5162 7.09322 60.2695 6.44655 61.2295 5.97988C62.1895 5.51322 63.2895 5.27988 64.5295 5.27988C65.3029 5.27988 66.0229 5.37322 66.6895 5.55988C67.3562 5.73322 67.9362 5.96655 68.4295 6.25988C68.9229 6.55322 69.3029 6.86655 69.5695 7.19988C69.8495 7.53322 69.9895 7.85988 69.9895 8.17988L69.3895 8.21988V1.19988H71.4495V15.9999H69.3895V13.0999L69.7895 13.2599C69.7895 13.5665 69.6429 13.8932 69.3495 14.2399C69.0562 14.5732 68.6562 14.8932 68.1495 15.1999C67.6562 15.4932 67.0829 15.7332 66.4296 15.9199C65.7895 16.1065 65.1162 16.1999 64.4095 16.1999ZM64.8695 14.2999C65.7762 14.2999 66.5762 14.1465 67.2695 13.8399C67.9629 13.5199 68.5029 13.0932 68.8895 12.5599C69.2762 12.0132 69.4695 11.4066 69.4695 10.7399C69.4695 10.0732 69.2762 9.47322 68.8895 8.93988C68.5029 8.40655 67.9629 7.98655 67.2695 7.67988C66.5762 7.35988 65.7762 7.19988 64.8695 7.19988C63.9762 7.19988 63.1829 7.35988 62.4895 7.67988C61.7962 7.98655 61.2495 8.40655 60.8495 8.93988C60.4629 9.47322 60.2695 10.0732 60.2695 10.7399C60.2695 11.4066 60.4629 12.0132 60.8495 12.5599C61.2495 13.0932 61.7962 13.5199 62.4895 13.8399C63.1829 14.1465 63.9762 14.2999 64.8695 14.2999Z" fill="white"/>
<path d="M84.5869 16.1999C83.2002 16.1999 81.9669 15.9732 80.8869 15.5199C79.8069 15.0532 78.9602 14.4199 78.3469 13.6199C77.7469 12.8066 77.4469 11.8865 77.4469 10.8599C77.4469 9.97988 77.6269 9.19988 77.9869 8.51988C78.3602 7.82655 78.8669 7.23988 79.5069 6.75988C80.1602 6.27988 80.9069 5.91322 81.7469 5.65988C82.5869 5.39322 83.4736 5.25988 84.4069 5.25988C85.2869 5.25988 86.1136 5.38655 86.8869 5.63988C87.6602 5.87988 88.3402 6.22655 88.9269 6.67988C89.5136 7.13322 89.9669 7.67322 90.2869 8.29988C90.6202 8.91322 90.7802 9.59988 90.7669 10.3599L90.7469 11.4399H79.3669L78.9069 9.79988H88.9669L88.6669 9.93988V9.45988C88.6002 9.00655 88.3536 8.60655 87.9269 8.25988C87.5136 7.91322 86.9936 7.64655 86.3669 7.45988C85.7536 7.25988 85.1002 7.15988 84.4069 7.15988C83.5002 7.15988 82.6736 7.27322 81.9269 7.49988C81.1802 7.72655 80.5869 8.09988 80.1469 8.61988C79.7069 9.13988 79.4869 9.83988 79.4869 10.7199C79.4869 11.4399 79.7202 12.0665 80.1869 12.5999C80.6536 13.1332 81.3002 13.5465 82.1269 13.8399C82.9536 14.1332 83.9069 14.2799 84.9869 14.2799C86.0669 14.2799 86.9602 14.1399 87.6669 13.8599C88.3736 13.5799 88.9469 13.3132 89.3869 13.0599L90.2869 14.6199C89.8869 14.8865 89.3802 15.1465 88.7669 15.3999C88.1669 15.6399 87.5069 15.8332 86.7869 15.9799C86.0669 16.1265 85.3336 16.1999 84.5869 16.1999Z" fill="white"/>
</svg>
