<svg id="Layer_3" data-name="Layer 3" xmlns="http://www.w3.org/2000/svg" viewBox="0 0 35.3 26.8"><defs><style>.cls-1{fill:#fff;}.cls-2{fill:#ffa3eb;}.cls-3{fill:none;stroke:#000;}</style></defs><path class="cls-1" d="M15.5,24.2,8.8,17.7,19,5.2,6.5,15.5,0,9.2l24-9Z" transform="translate(0 -0.2)"/><path class="cls-2" d="M25.8,8h0a9.56,9.56,0,0,1,9.5,9.5h0A9.56,9.56,0,0,1,25.8,27h0a9.56,9.56,0,0,1-9.5-9.5h0A9.43,9.43,0,0,1,25.8,8Z" transform="translate(0 -0.2)"/><path class="cls-3" d="M25.8,8.5h0a9,9,0,0,1,9,9h0a9,9,0,0,1-9,9h0a9,9,0,0,1-9-9h0A9,9,0,0,1,25.8,8.5Z" transform="translate(0 -0.2)"/><path class="cls-1" d="M26.4,21.5H25.3V14.1h0l-2.1,1.4V14.4L25.3,13h1.1Z" transform="translate(0 -0.2)"/></svg>