<svg width="25" height="25" viewBox="0 0 25 25" fill="none" xmlns="http://www.w3.org/2000/svg">
<path d="M12.6816 0C16.1597 0 18.8316 0.914178 20.7256 2.52051C22.6201 4.12748 23.625 6.33307 23.9502 8.69824C24.3196 11.386 23.8209 14.3403 22.7002 17.0605C23.2527 17.1969 23.7414 17.4766 24.1103 17.9033C25.3033 19.2833 24.7951 21.6771 22.9756 23.25C21.1561 24.8229 18.7145 24.9795 17.5215 23.5996C16.3286 22.2197 16.8359 19.8258 18.6553 18.2529C19.1394 17.8344 19.6681 17.5165 20.2051 17.3008C21.5274 14.6202 22.1531 11.6068 21.7939 8.99414C21.5265 7.05015 20.7243 5.37576 19.3164 4.18164C17.9075 2.98676 15.7783 2.17773 12.6816 2.17773C9.57606 2.17787 7.44304 2.95903 6.02734 4.11914C4.61575 5.27605 3.80451 6.9023 3.51074 8.8125C3.09692 11.5051 3.73224 14.6787 5.08301 17.5508C5.43444 17.74 5.7769 17.974 6.09961 18.2529C7.91913 19.8258 8.42729 22.2196 7.23437 23.5996C6.04142 24.9796 3.59883 24.8229 1.77929 23.25C-0.0398896 21.6771 -0.547352 19.2832 0.645505 17.9033C1.10619 17.3706 1.75317 17.0679 2.47851 16.9863C1.40913 14.1837 0.942846 11.1848 1.3584 8.48145C1.71706 6.14901 2.74244 3.99578 4.64746 2.43457C6.5487 0.876687 9.21347 0.000136371 12.6816 0Z" fill="#7E7E7E"/>
</svg>
