<svg width="25" height="25" viewBox="0 0 25 25" fill="none" xmlns="http://www.w3.org/2000/svg">
<path d="M12.6807 0C16.1587 0 18.8307 0.914178 20.7247 2.52051C22.6192 4.12748 23.624 6.33305 23.9493 8.69824C24.3187 11.3859 23.8209 14.3403 22.7002 17.0605C23.2523 17.1971 23.7407 17.4768 24.1094 17.9033C25.3022 19.2833 24.7941 21.6772 22.9747 23.25C21.1551 24.8229 18.7125 24.9796 17.5196 23.5996C16.3267 22.2197 16.835 19.8258 18.6544 18.2529C19.1385 17.8344 19.6671 17.5165 20.2042 17.3008C21.5265 14.6201 22.1522 11.6068 21.793 8.99414C21.5256 7.05014 20.7234 5.37576 19.3155 4.18164C17.9066 2.98677 15.7774 2.17773 12.6807 2.17773C9.5752 2.17789 7.4421 2.95905 6.02642 4.11914C4.61487 5.27605 3.80358 6.90233 3.50982 8.8125C3.0961 11.5044 3.731 14.6773 5.08111 17.5488C5.43334 17.7382 5.77626 17.9734 6.09966 18.2529C7.91915 19.8258 8.42737 22.2196 7.23443 23.5996C6.04143 24.9795 3.59883 24.8229 1.77935 23.25C-0.0399848 21.6771 -0.547336 19.2833 0.645562 17.9033C1.10607 17.3707 1.75252 17.0671 2.47759 16.9854C1.40846 14.1829 0.941974 11.1845 1.35748 8.48145C1.71614 6.14901 2.74152 3.99578 4.64654 2.43457C6.54776 0.87667 9.21256 0.000154687 12.6807 0Z" fill="white"/>
</svg>
