<svg width="26" height="25" viewBox="0 0 26 25" fill="none" xmlns="http://www.w3.org/2000/svg">
<path fill-rule="evenodd" clip-rule="evenodd" d="M12.7534 0C19.657 0 25.2534 5.59644 25.2534 12.5C25.2534 19.4036 19.657 25 12.7534 25C5.84986 25 0.253418 19.4036 0.253418 12.5C0.253418 5.59644 5.84986 0 12.7534 0ZM21.2534 17.6514C17.2534 14.0001 8.25344 13.9999 4.25342 17.6514C5.08675 19.1514 7.95342 22.1514 12.7534 22.1514C17.5534 22.1514 20.5868 19.1514 21.2534 17.6514ZM12.7534 5C10.5443 5 8.75342 6.79086 8.75342 9C8.75342 11.2091 10.5443 13 12.7534 13C14.9626 13 16.7534 11.2091 16.7534 9C16.7534 6.79086 14.9626 5 12.7534 5Z" fill="#7E7E7E"/>
</svg>
