<svg width="25" height="25" viewBox="0 0 25 25" fill="none" xmlns="http://www.w3.org/2000/svg">
<path fill-rule="evenodd" clip-rule="evenodd" d="M12.5 0C19.4036 0 25 5.59644 25 12.5C25 19.4036 19.4036 25 12.5 25C5.59644 25 0 19.4036 0 12.5C0 5.59644 5.59644 0 12.5 0ZM21 17.6514C17 14.0001 8.00002 13.9999 4 17.6514C4.83333 19.1514 7.7 22.1514 12.5 22.1514C17.3 22.1514 20.3333 19.1514 21 17.6514ZM12.5 5C10.2909 5 8.5 6.79086 8.5 9C8.5 11.2091 10.2909 13 12.5 13C14.7091 13 16.5 11.2091 16.5 9C16.5 6.79086 14.7091 5 12.5 5Z" fill="white"/>
</svg>
