<svg width="29" height="29" viewBox="0 0 29 29" fill="none" xmlns="http://www.w3.org/2000/svg">
<circle cx="14.5" cy="14.5" r="14.5" fill="#9D9B58"/>
<circle cx="14.5" cy="14.5001" r="13.4259" fill="#F5F278"/>
<circle cx="14.5" cy="14.5" r="11.5" fill="#9D9B58"/>
<path d="M15.3945 15.8475C15.2636 15.8475 15.0963 15.8475 14.8927 15.8475C14.6891 15.8475 14.5363 15.8402 14.4345 15.8257L14.74 14.6039H15.3508C16.3835 14.6039 17.198 14.4149 17.7944 14.0367C18.4052 13.644 18.8489 13.1567 19.1252 12.5749C19.4016 11.9786 19.5397 11.3896 19.5397 10.8078C19.5397 10.1242 19.3725 9.55691 19.0379 9.10603C18.7034 8.64059 18.238 8.29152 17.6416 8.0588C17.0453 7.82609 16.3472 7.70973 15.5472 7.70973C14.9363 7.70973 14.3109 7.797 13.6709 7.97153C13.0455 8.13153 12.4564 8.39333 11.9037 8.75695C11.351 9.12057 10.9074 9.59328 10.5729 10.1751C10.2384 10.7569 10.0711 11.4695 10.0711 12.3131C10.0711 12.6768 10.1147 13.0113 10.202 13.3167C10.2893 13.6222 10.4347 13.9785 10.6383 14.3858C10.4784 14.5167 10.2965 14.6185 10.0929 14.6912C9.88929 14.7494 9.67839 14.7785 9.46022 14.7785C9.08205 14.7785 8.74025 14.6767 8.43481 14.473C8.14392 14.2694 7.91847 13.9858 7.75848 13.6222C7.59849 13.244 7.51849 12.8149 7.51849 12.335C7.51849 11.5059 7.72212 10.7423 8.12937 10.0442C8.55117 9.33147 9.13296 8.70605 9.87474 8.16789C10.6311 7.62973 11.5183 7.20794 12.5364 6.9025C13.5691 6.59706 14.6891 6.44434 15.8963 6.44434C16.8417 6.44434 17.6925 6.54615 18.4489 6.74978C19.2052 6.93886 19.8524 7.22248 20.3906 7.60064C20.9288 7.96426 21.3433 8.41515 21.6342 8.95331C21.9251 9.47692 22.0705 10.0805 22.0705 10.7641C22.0705 11.5205 21.896 12.2113 21.5469 12.8368C21.1978 13.4622 20.7106 14.0003 20.0852 14.4512C19.4743 14.8876 18.7616 15.2294 17.9471 15.4766C17.1471 15.7239 16.2963 15.8475 15.3945 15.8475ZM11.7292 21.6291C11.511 21.6291 11.2856 21.5927 11.0529 21.52C10.8202 21.4472 10.6311 21.3309 10.4856 21.1709C10.6456 21.04 10.7911 20.8655 10.922 20.6473C11.0529 20.4291 11.1692 20.1746 11.271 19.8837C11.3729 19.5928 11.4528 19.2801 11.511 18.9456L13.1037 10.8732C13.2055 10.3932 13.3364 9.99326 13.4964 9.67327C13.6709 9.35329 13.8964 9.1133 14.1727 8.95331C14.4491 8.77877 14.7909 8.6915 15.1981 8.6915C15.6199 8.6915 15.9472 8.77877 16.1799 8.95331C16.4272 9.1133 16.5726 9.30965 16.6162 9.54237C16.2526 9.71691 16.0054 9.98598 15.8745 10.3496C15.7581 10.6987 15.6563 11.0768 15.569 11.4841L13.8673 19.7964C13.7946 20.2037 13.6564 20.5455 13.4528 20.8218C13.2491 21.0836 13.0019 21.28 12.711 21.4109C12.4201 21.5563 12.0928 21.6291 11.7292 21.6291Z" fill="white"/>
</svg>
