<svg width="29" height="29" viewBox="0 0 29 29" fill="none" xmlns="http://www.w3.org/2000/svg">
<circle cx="14.5" cy="14.5" r="14.5" fill="#FF5900"/>
<circle cx="14.4999" cy="14.5001" r="13.4259" fill="#FFCAB3"/>
<circle cx="14.5" cy="14.5" r="11.5" fill="#FF5900"/>
<path d="M15.3945 15.8475C15.2636 15.8475 15.0964 15.8475 14.8927 15.8475C14.6891 15.8475 14.5364 15.8402 14.4346 15.8257L14.74 14.6039H15.3509C16.3836 14.6039 17.1981 14.4149 17.7944 14.0367C18.4053 13.644 18.8489 13.1567 19.1253 12.5749C19.4016 11.9786 19.5398 11.3896 19.5398 10.8078C19.5398 10.1242 19.3725 9.55691 19.038 9.10603C18.7035 8.64059 18.238 8.29152 17.6417 8.0588C17.0454 7.82609 16.3472 7.70973 15.5473 7.70973C14.9364 7.70973 14.311 7.797 13.671 7.97153C13.0456 8.13153 12.4565 8.39333 11.9038 8.75695C11.3511 9.12057 10.9075 9.59328 10.573 10.1751C10.2384 10.7569 10.0712 11.4695 10.0712 12.3131C10.0712 12.6768 10.1148 13.0113 10.2021 13.3167C10.2893 13.6222 10.4348 13.9785 10.6384 14.3858C10.4784 14.5167 10.2966 14.6185 10.093 14.6912C9.88935 14.7494 9.67845 14.7785 9.46028 14.7785C9.08212 14.7785 8.74031 14.6767 8.43487 14.473C8.14398 14.2694 7.91854 13.9858 7.75854 13.6222C7.59855 13.244 7.51855 12.8149 7.51855 12.335C7.51855 11.5059 7.72218 10.7423 8.12943 10.0442C8.55123 9.33147 9.13302 8.70605 9.8748 8.16789C10.6311 7.62973 11.5184 7.20794 12.5365 6.9025C13.5692 6.59706 14.6891 6.44434 15.8963 6.44434C16.8417 6.44434 17.6926 6.54615 18.4489 6.74978C19.2053 6.93886 19.8525 7.22248 20.3907 7.60064C20.9288 7.96426 21.3433 8.41515 21.6342 8.95331C21.9251 9.47692 22.0706 10.0805 22.0706 10.7641C22.0706 11.5205 21.896 12.2113 21.547 12.8368C21.1979 13.4622 20.7106 14.0003 20.0852 14.4512C19.4743 14.8876 18.7616 15.2294 17.9471 15.4766C17.1472 15.7239 16.2963 15.8475 15.3945 15.8475ZM11.7293 21.6291C11.5111 21.6291 11.2856 21.5927 11.0529 21.52C10.8202 21.4472 10.6311 21.3309 10.4857 21.1709C10.6457 21.04 10.7911 20.8655 10.922 20.6473C11.0529 20.4291 11.1693 20.1746 11.2711 19.8837C11.3729 19.5928 11.4529 19.2801 11.5111 18.9456L13.1037 10.8732C13.2056 10.3932 13.3365 9.99326 13.4964 9.67327C13.671 9.35329 13.8964 9.1133 14.1728 8.95331C14.4491 8.77877 14.7909 8.6915 15.1982 8.6915C15.62 8.6915 15.9472 8.77877 16.18 8.95331C16.4272 9.1133 16.5727 9.30965 16.6163 9.54237C16.2527 9.71691 16.0054 9.98598 15.8745 10.3496C15.7582 10.6987 15.6563 11.0768 15.5691 11.4841L13.8673 19.7964C13.7946 20.2037 13.6564 20.5455 13.4528 20.8218C13.2492 21.0836 13.0019 21.28 12.711 21.4109C12.4201 21.5563 12.0929 21.6291 11.7293 21.6291Z" fill="white"/>
</svg>
