<svg width="21" height="21" viewBox="0 0 21 21" fill="none" xmlns="http://www.w3.org/2000/svg">
<path d="M16.25 18.1665C16.25 16.6415 15.6442 15.179 14.5659 14.1006C13.4875 13.0223 12.025 12.4165 10.5 12.4165C8.97501 12.4165 7.51247 13.0223 6.43414 14.1006C5.3558 15.179 4.75 16.6415 4.75 18.1665" stroke="white" stroke-width="1.5" stroke-linecap="round" stroke-linejoin="round"/>
<path d="M10.5003 12.4167C12.6174 12.4167 14.3337 10.7004 14.3337 8.58333C14.3337 6.46624 12.6174 4.75 10.5003 4.75C8.38323 4.75 6.66699 6.46624 6.66699 8.58333C6.66699 10.7004 8.38323 12.4167 10.5003 12.4167Z" stroke="white" stroke-width="1.5" stroke-linecap="round" stroke-linejoin="round"/>
<path d="M10.5003 20.0832C15.7931 20.0832 20.0837 15.7926 20.0837 10.4998C20.0837 5.20711 15.7931 0.916504 10.5003 0.916504C5.2076 0.916504 0.916992 5.20711 0.916992 10.4998C0.916992 15.7926 5.2076 20.0832 10.5003 20.0832Z" stroke="white" stroke-width="1.5" stroke-linecap="round" stroke-linejoin="round"/>
</svg>
