<svg width="20" height="18" viewBox="0 0 20 18" fill="none" xmlns="http://www.w3.org/2000/svg">
<path d="M18.0771 9.25391C18.4551 9.29253 18.75 9.61184 18.75 10V14.25H3.31055L5.03906 15.9785L5.0459 15.9873L5.11035 16.0654L5.11914 16.0762L5.12695 16.0869C5.31922 16.3784 5.28642 16.7741 5.03027 17.0303C4.7374 17.3231 4.2626 17.3231 3.96973 17.0303L0.439453 13.5L3.96973 9.96973C4.26262 9.67683 4.73738 9.67683 5.03027 9.96973C5.32309 10.2626 5.32314 10.7374 5.03027 11.0303L3.31055 12.75H17.25V10C17.25 9.58579 17.5858 9.25 18 9.25L18.0771 9.25391ZM14.4697 0.469727C14.7626 0.176833 15.2374 0.176833 15.5303 0.469727L19.0605 4L15.5303 7.53027C15.2374 7.82302 14.7626 7.82302 14.4697 7.53027C14.1768 7.23739 14.177 6.7626 14.4697 6.46973L16.1895 4.75H2.25V7.5L2.24609 7.57715C2.20737 7.95498 1.88813 8.25 1.5 8.25C1.11187 8.25 0.792629 7.95498 0.753906 7.57715L0.75 7.5V3.25H16.1895L14.4609 1.52148L14.4541 1.5127L14.3896 1.43457L14.3809 1.42383L14.373 1.41309C14.1807 1.12161 14.2137 0.725896 14.4697 0.469727Z" fill="white"/>
</svg>
