<svg width="24" height="22" viewBox="0 0 24 22" fill="none" xmlns="http://www.w3.org/2000/svg">
<path d="M1 5.54557V3.27278C1 2.67 1.26339 2.09191 1.73223 1.66568C2.20107 1.23945 2.83696 1 3.5 1H6" stroke="white" stroke-width="2" stroke-linecap="round" stroke-linejoin="round"/>
<path d="M18 1H20.5C21.163 1 21.7989 1.23945 22.2678 1.66568C22.7366 2.09191 23 2.67 23 3.27278V5.54557" stroke="white" stroke-width="2" stroke-linecap="round" stroke-linejoin="round"/>
<path d="M23 16.4546V18.7274C23 19.3302 22.7366 19.9082 22.2678 20.3345C21.7989 20.7607 21.163 21.0002 20.5 21.0002H18" stroke="white" stroke-width="2" stroke-linecap="round" stroke-linejoin="round"/>
<path d="M6 21.0002H3.5C2.83696 21.0002 2.20107 20.7607 1.73223 20.3345C1.26339 19.9082 1 19.3302 1 18.7274V16.4546" stroke="white" stroke-width="2" stroke-linecap="round" stroke-linejoin="round"/>
<path d="M6 11.0005H18" stroke="white" stroke-width="2" stroke-linecap="round" stroke-linejoin="round"/>
</svg>
