<svg width="16" height="16" viewBox="0 0 16 16" fill="none" xmlns="http://www.w3.org/2000/svg">
<path d="M10.8693 10.1532H10.1918L9.95167 9.91694C10.7922 8.91926 11.2982 7.62402 11.2982 6.21502C11.2982 3.0732 8.80244 0.526489 5.72354 0.526489C2.64464 0.526489 0.148926 3.0732 0.148926 6.21502C0.148926 9.35684 2.64464 11.9035 5.72354 11.9035C7.10433 11.9035 8.37362 11.3872 9.35133 10.5296L9.58289 10.7746V11.466L13.8711 15.833L15.1489 14.529L10.8693 10.1532ZM5.72354 10.1532C3.58803 10.1532 1.86419 8.39416 1.86419 6.21502C1.86419 4.03587 3.58803 2.27681 5.72354 2.27681C7.85905 2.27681 9.58289 4.03587 9.58289 6.21502C9.58289 8.39416 7.85905 10.1532 5.72354 10.1532Z" fill="#666666" fill-opacity="0.6"/>
</svg>
