<svg width="20" height="22" viewBox="0 0 20 22" fill="none" xmlns="http://www.w3.org/2000/svg">
<path d="M10.22 1H9.78C9.24957 1 8.74086 1.21071 8.36579 1.58579C7.99072 1.96086 7.78 2.46957 7.78 3V3.18C7.77964 3.53073 7.68706 3.87519 7.51154 4.17884C7.33602 4.48248 7.08374 4.73464 6.78 4.91L6.35 5.16C6.04596 5.33554 5.70108 5.42795 5.35 5.42795C4.99893 5.42795 4.65404 5.33554 4.35 5.16L4.2 5.08C3.74107 4.81526 3.19584 4.74344 2.684 4.88031C2.17217 5.01717 1.73555 5.35154 1.47 5.81L1.25 6.19C0.985265 6.64893 0.913446 7.19416 1.05031 7.706C1.18717 8.21783 1.52154 8.65445 1.98 8.92L2.13 9.02C2.43228 9.19451 2.68362 9.44509 2.85905 9.74683C3.03448 10.0486 3.1279 10.391 3.13 10.74V11.25C3.1314 11.6024 3.03965 11.949 2.86405 12.2545C2.68844 12.5601 2.43521 12.8138 2.13 12.99L1.98 13.08C1.52154 13.3456 1.18717 13.7822 1.05031 14.294C0.913446 14.8058 0.985265 15.3511 1.25 15.81L1.47 16.19C1.73555 16.6485 2.17217 16.9828 2.684 17.1197C3.19584 17.2566 3.74107 17.1847 4.2 16.92L4.35 16.84C4.65404 16.6645 4.99893 16.5721 5.35 16.5721C5.70108 16.5721 6.04596 16.6645 6.35 16.84L6.78 17.09C7.08374 17.2654 7.33602 17.5175 7.51154 17.8212C7.68706 18.1248 7.77964 18.4693 7.78 18.82V19C7.78 19.5304 7.99072 20.0391 8.36579 20.4142C8.74086 20.7893 9.24957 21 9.78 21H10.22C10.7504 21 11.2591 20.7893 11.6342 20.4142C12.0093 20.0391 12.22 19.5304 12.22 19V18.82C12.2204 18.4693 12.3129 18.1248 12.4885 17.8212C12.664 17.5175 12.9163 17.2654 13.22 17.09L13.65 16.84C13.954 16.6645 14.2989 16.5721 14.65 16.5721C15.0011 16.5721 15.346 16.6645 15.65 16.84L15.8 16.92C16.2589 17.1847 16.8042 17.2566 17.316 17.1197C17.8278 16.9828 18.2645 16.6485 18.53 16.19L18.75 15.8C19.0147 15.3411 19.0866 14.7958 18.9497 14.284C18.8128 13.7722 18.4785 13.3356 18.02 13.07L17.87 12.99C17.5648 12.8138 17.3116 12.5601 17.136 12.2545C16.9604 11.949 16.8686 11.6024 16.87 11.25V10.75C16.8686 10.3976 16.9604 10.051 17.136 9.74549C17.3116 9.43994 17.5648 9.18621 17.87 9.01L18.02 8.92C18.4785 8.65445 18.8128 8.21783 18.9497 7.706C19.0866 7.19416 19.0147 6.64893 18.75 6.19L18.53 5.81C18.2645 5.35154 17.8278 5.01717 17.316 4.88031C16.8042 4.74344 16.2589 4.81526 15.8 5.08L15.65 5.16C15.346 5.33554 15.0011 5.42795 14.65 5.42795C14.2989 5.42795 13.954 5.33554 13.65 5.16L13.22 4.91C12.9163 4.73464 12.664 4.48248 12.4885 4.17884C12.3129 3.87519 12.2204 3.53073 12.22 3.18V3C12.22 2.46957 12.0093 1.96086 11.6342 1.58579C11.2591 1.21071 10.7504 1 10.22 1Z" stroke="white" stroke-width="1.5" stroke-linecap="round" stroke-linejoin="round"/>
<path d="M10 14C11.6569 14 13 12.6569 13 11C13 9.34315 11.6569 8 10 8C8.34315 8 7 9.34315 7 11C7 12.6569 8.34315 14 10 14Z" stroke="white" stroke-width="1.5" stroke-linecap="round" stroke-linejoin="round"/>
</svg>
