<svg width="29" height="25" viewBox="0 0 29 25" fill="none" xmlns="http://www.w3.org/2000/svg">
<path fill-rule="evenodd" clip-rule="evenodd" d="M23.959 7.875C25.4803 7.875 26.7607 9.01362 26.9385 10.5244L28.2325 21.5244C28.4423 23.3079 27.0488 24.875 25.253 24.875H3.00102L2.83305 24.8701C1.17459 24.7793 -0.0977022 23.3491 0.00590529 21.6914L0.0215303 21.5244L1.31548 10.5244C1.48215 9.10799 2.6179 8.01826 4.01274 7.8877L4.29497 7.875H6.877C6.877 3.65219 9.76553 0.125024 14.377 0.125C18.9885 0.125 21.877 3.65218 21.877 7.875H23.959ZM20.377 7.875C20.377 4.36583 18.0498 1.625 14.377 1.625C10.7043 1.62502 8.377 4.36585 8.377 7.875H20.377ZM4.29497 9.375C3.53438 9.37505 2.8936 9.94481 2.80473 10.7002L1.51079 21.7002C1.40618 22.5917 2.10334 23.3749 3.00102 23.375H25.253C26.1507 23.375 26.8478 22.5917 26.7432 21.7002L25.4493 10.7002C25.3604 9.94478 24.7197 9.375 23.959 9.375H8.37309V12.5254H17.9034C18.5637 12.5254 19.5352 12.7223 20.3614 13.332C21.2247 13.9692 21.8731 15.0187 21.8731 16.5752C21.8731 18.1317 21.2247 19.1812 20.3614 19.8184C19.5352 20.4281 18.5637 20.625 17.9034 20.625H8.62309C7.65662 20.625 6.87309 19.8415 6.87309 18.875V9.375H4.29497ZM8.37309 18.875C8.37309 19.0131 8.48504 19.125 8.62309 19.125H17.9034C18.3161 19.125 18.9556 18.9915 19.4707 18.6113C19.9486 18.2586 20.3731 17.6581 20.3731 16.5752C20.3731 15.4923 19.9487 14.8918 19.4707 14.5391C18.9556 14.1589 18.3161 14.0254 17.9034 14.0254H8.37309V18.875Z" fill="#7E7E7E"/>
</svg>
