<svg width="29" height="25" viewBox="0 0 29 25" fill="none" xmlns="http://www.w3.org/2000/svg">
<path fill-rule="evenodd" clip-rule="evenodd" d="M23.959 7.75C25.4803 7.75 26.7607 8.88862 26.9385 10.3994L28.2325 21.3994C28.4423 23.1829 27.0488 24.75 25.253 24.75H3.00102L2.83305 24.7451C1.17459 24.6543 -0.0977022 23.2241 0.00590529 21.5664L0.0215303 21.3994L1.31548 10.3994C1.48215 8.98299 2.6179 7.89326 4.01274 7.7627L4.29497 7.75H6.877C6.877 3.52719 9.76553 2.35857e-05 14.377 0C18.9885 0 21.877 3.52718 21.877 7.75H23.959ZM20.377 7.75C20.377 4.24083 18.0498 1.5 14.377 1.5C10.7043 1.50002 8.377 4.24085 8.377 7.75H20.377ZM4.29497 9.25C3.53438 9.25005 2.8936 9.81981 2.80473 10.5752L1.51079 21.5752C1.40618 22.4667 2.10334 23.2499 3.00102 23.25H25.253C26.1507 23.25 26.8478 22.4667 26.7432 21.5752L25.4493 10.5752C25.3604 9.81978 24.7197 9.25 23.959 9.25H8.37309V12.4004H17.9034C18.5637 12.4004 19.5352 12.5973 20.3614 13.207C21.2247 13.8442 21.8731 14.8937 21.8731 16.4502C21.8731 18.0067 21.2247 19.0562 20.3614 19.6934C19.5352 20.3031 18.5637 20.5 17.9034 20.5H8.62309C7.65662 20.5 6.87309 19.7165 6.87309 18.75V9.25H4.29497ZM8.37309 18.75C8.37309 18.8881 8.48504 19 8.62309 19H17.9034C18.3161 19 18.9556 18.8665 19.4707 18.4863C19.9486 18.1336 20.3731 17.5331 20.3731 16.4502C20.3731 15.3673 19.9487 14.7668 19.4707 14.4141C18.9556 14.0339 18.3161 13.9004 17.9034 13.9004H8.37309V18.75Z" fill="white"/>
</svg>
