<svg width="20" height="17" viewBox="0 0 20 17" fill="none" xmlns="http://www.w3.org/2000/svg">
<path d="M14.4697 9.46973C14.7626 9.17705 15.2374 9.17702 15.5303 9.46973L19.0605 13L15.5303 16.5303C15.2374 16.8231 14.7626 16.8231 14.4697 16.5303C14.2137 16.2741 14.1808 15.8783 14.373 15.5869L14.3809 15.5762L14.3896 15.5654L14.4541 15.4873L14.4609 15.4785L16.0684 13.8701C12.8818 13.7716 10.6357 12.2135 9.17969 10.623C9.44746 10.2531 9.71584 9.85581 9.9834 9.42773C10.0019 9.39815 10.0219 9.36876 10.041 9.33887C11.3167 10.8403 13.3427 12.3441 16.3125 12.373L14.4697 10.5303C14.177 10.2374 14.1769 9.76257 14.4697 9.46973ZM14.5264 0.417969C14.8209 0.177783 15.2557 0.195288 15.5303 0.469727L19.0605 4L15.5303 7.53027C15.2557 7.8048 14.8209 7.82226 14.5264 7.58203L14.4697 7.53027C14.1769 7.23737 14.177 6.76255 14.4697 6.46973L16.3105 4.62695C12.5049 4.66509 10.2425 7.12667 9.13574 8.89746C7.85009 10.9546 6.64222 12.1952 5.36426 12.9053C4.07566 13.621 2.79988 13.75 1.5 13.75C1.11175 13.75 0.792679 13.4548 0.753906 13.0771L0.75 13C0.750119 12.5859 1.08586 12.25 1.5 12.25C2.69995 12.25 3.67453 12.1277 4.63574 11.5938C5.6074 11.0538 6.6504 10.0438 7.86426 8.10156C9.08337 6.1512 11.6884 3.26497 16.0703 3.13086L14.4609 1.52148L14.4541 1.5127L14.3896 1.43457L14.3809 1.42383L14.373 1.41309C14.1808 1.1216 14.2137 0.725832 14.4697 0.469727L14.5264 0.417969ZM1.5 3.25C2.79985 3.25 4.07569 3.37902 5.36426 4.09473C6.22487 4.57291 7.05102 5.29395 7.89258 6.33984C7.54688 6.77112 7.25505 7.18985 7.0166 7.57129C7.00686 7.58688 6.99604 7.60174 6.98633 7.61719C6.13335 6.48451 5.36537 5.81165 4.63574 5.40625C3.67456 4.87236 2.69992 4.75 1.5 4.75C1.11182 4.75 0.792547 4.45508 0.753906 4.07715L0.75 4C0.750364 3.58629 1.08581 3.25 1.5 3.25Z" fill="white"/>
</svg>
