<svg width="18" height="20" viewBox="0 0 18 20" fill="none" xmlns="http://www.w3.org/2000/svg">
<path d="M0.75 9.0835H3.5C3.98623 9.0835 4.45255 9.27665 4.79636 9.62047C5.14018 9.96428 5.33333 10.4306 5.33333 10.9168V13.6668C5.33333 14.1531 5.14018 14.6194 4.79636 14.9632C4.45255 15.307 3.98623 15.5002 3.5 15.5002H2.58333C2.0971 15.5002 1.63079 15.307 1.28697 14.9632C0.943154 14.6194 0.75 14.1531 0.75 13.6668V9.0835ZM0.75 9.0835C0.75 8.00009 0.963392 6.92729 1.37799 5.92636C1.7926 4.92542 2.40029 4.01595 3.16637 3.24987C3.93245 2.48378 4.84193 1.87609 5.84286 1.46149C6.8438 1.04689 7.91659 0.833496 9 0.833496C10.0834 0.833496 11.1562 1.04689 12.1571 1.46149C13.1581 1.87609 14.0675 2.48378 14.8336 3.24987C15.5997 4.01595 16.2074 4.92542 16.622 5.92636C17.0366 6.92729 17.25 8.00009 17.25 9.0835M17.25 9.0835V13.6668C17.25 14.1531 17.0568 14.6194 16.713 14.9632C16.3692 15.307 15.9029 15.5002 15.4167 15.5002H14.5C14.0138 15.5002 13.5475 15.307 13.2036 14.9632C12.8598 14.6194 12.6667 14.1531 12.6667 13.6668V10.9168C12.6667 10.4306 12.8598 9.96428 13.2036 9.62047C13.5475 9.27665 14.0138 9.0835 14.5 9.0835H17.25Z" stroke="white" stroke-width="1.5" stroke-linecap="round" stroke-linejoin="round"/>
<path d="M17.25 13.6665V15.4998C17.25 16.4723 16.8637 17.4049 16.1761 18.0926C15.4884 18.7802 14.5558 19.1665 13.5833 19.1665H9" stroke="white" stroke-width="1.5" stroke-linecap="round" stroke-linejoin="round"/>
</svg>
