<svg width="16" height="16" viewBox="0 0 16 16" fill="none" xmlns="http://www.w3.org/2000/svg">
<g clip-path="url(#clip0_1003_2684)">
<path d="M7.6617 1.75C4.22466 1.75 1.44141 4.55 1.44141 8C1.44141 11.45 4.22466 14.25 7.6617 14.25C11.105 14.25 13.8944 11.45 13.8944 8C13.8944 4.55 11.105 1.75 7.6617 1.75ZM7.66793 13C4.91581 13 2.68671 10.7625 2.68671 8C2.68671 5.2375 4.91581 3 7.66793 3C10.4201 3 12.6491 5.2375 12.6491 8C12.6491 10.7625 10.4201 13 7.66793 13Z" fill="#777777"/>
<path d="M7.97695 4.875H7.04297V8.625L10.3119 10.5938L10.7789 9.825L7.97695 8.15625V4.875Z" fill="#777777"/>
</g>
<defs>
<clipPath id="clip0_1003_2684">
<rect width="14.9437" height="15" fill="white" transform="translate(0.195312 0.5)"/>
</clipPath>
</defs>
</svg>
