<svg width="12" height="12" viewBox="0 0 12 12" fill="none" xmlns="http://www.w3.org/2000/svg">
<path d="M5.99993 0.285645C6.39442 0.285645 6.71422 0.605441 6.71422 0.99993V5.28564H10.9999C11.3944 5.28564 11.7142 5.60544 11.7142 5.99993C11.7142 6.39442 11.3944 6.71422 10.9999 6.71422H6.71422V10.9999C6.71422 11.3944 6.39442 11.7142 5.99993 11.7142C5.60544 11.7142 5.28564 11.3944 5.28564 10.9999V6.71422H0.99993C0.605441 6.71422 0.285645 6.39442 0.285645 5.99993C0.285645 5.60544 0.605441 5.28564 0.99993 5.28564H5.28564V0.99993C5.28564 0.605441 5.60544 0.285645 5.99993 0.285645Z" fill="white"/>
</svg>
