<svg width="12" height="11" viewBox="0 0 12 11" fill="none" xmlns="http://www.w3.org/2000/svg">
<path d="M1.86719 6.74805C0.969401 5.8457 0.513672 4.85221 0.5 3.76758C0.504557 3.17513 0.652669 2.62826 0.944336 2.12695C1.24056 1.62565 1.63704 1.22917 2.13379 0.9375C2.63509 0.645833 3.17969 0.5 3.76758 0.5C4.16406 0.5 4.5446 0.568359 4.90918 0.705078C5.27832 0.83724 5.60417 1.0332 5.88672 1.29297C6.17839 1.0332 6.50879 0.83724 6.87793 0.705078C7.24707 0.568359 7.63216 0.5 8.0332 0.5C8.62109 0.5 9.16341 0.645833 9.66016 0.9375C10.1569 1.22917 10.5511 1.62565 10.8428 2.12695C11.139 2.62826 11.2871 3.17513 11.2871 3.76758C11.278 4.8431 10.8223 5.83659 9.91992 6.74805L5.88672 10.7676L1.86719 6.74805ZM1.55273 3.76758C1.56641 4.56055 1.92188 5.30794 2.61914 6.00977L5.88672 9.27734L9.1543 6.00977C9.86068 5.31706 10.2253 4.56966 10.248 3.76758C10.2435 3.36654 10.1387 2.9974 9.93359 2.66016C9.73307 2.31836 9.46419 2.04948 9.12695 1.85352C8.79427 1.65299 8.42969 1.55273 8.0332 1.55273C7.67318 1.55273 7.32682 1.65072 6.99414 1.84668C6.66146 2.03809 6.29232 2.3776 5.88672 2.86523C5.49479 2.38216 5.13249 2.04264 4.7998 1.84668C4.46712 1.65072 4.12305 1.55273 3.76758 1.55273C3.37109 1.55273 3.00423 1.65299 2.66699 1.85352C2.32975 2.04948 2.06087 2.31836 1.86035 2.66016C1.65983 2.9974 1.55729 3.36654 1.55273 3.76758Z" fill="#DBDBDB"/>
</svg>
