<svg width="21" height="20" viewBox="0 0 21 20" fill="none" xmlns="http://www.w3.org/2000/svg">
<path d="M10.375 0C15.8978 0 20.375 4.47715 20.375 10C20.375 15.5228 15.8978 20 10.375 20C4.85215 20 0.375 15.5228 0.375 10C0.375 4.47715 4.85215 0 10.375 0ZM10.375 1.25C5.54251 1.25 1.625 5.16751 1.625 10C1.625 14.8325 5.54251 18.75 10.375 18.75C15.2075 18.75 19.125 14.8325 19.125 10C19.125 5.16751 15.2075 1.25 10.375 1.25Z" fill="white"/>
<path d="M11.0156 11.7344C10.9219 11.7344 10.8021 11.7344 10.6563 11.7344C10.5104 11.7344 10.401 11.7292 10.3281 11.7188L10.5469 10.8438H10.9844C11.724 10.8438 12.3073 10.7083 12.7344 10.4375C13.1719 10.1563 13.4896 9.80729 13.6875 9.39063C13.8854 8.96354 13.9844 8.54167 13.9844 8.125C13.9844 7.63542 13.8646 7.22917 13.625 6.90625C13.3854 6.57292 13.0521 6.32292 12.625 6.15625C12.1979 5.98958 11.6979 5.90625 11.125 5.90625C10.6875 5.90625 10.2396 5.96875 9.78125 6.09375C9.33333 6.20833 8.91146 6.39583 8.51562 6.65625C8.11979 6.91667 7.80208 7.25521 7.5625 7.67188C7.32292 8.08854 7.20313 8.59896 7.20313 9.20312C7.20313 9.46354 7.23438 9.70312 7.29688 9.92188C7.35938 10.1406 7.46354 10.3958 7.60938 10.6875C7.49479 10.7813 7.36458 10.8542 7.21875 10.9063C7.07292 10.9479 6.92188 10.9688 6.76563 10.9688C6.49479 10.9688 6.25 10.8958 6.03125 10.75C5.82292 10.6042 5.66146 10.401 5.54688 10.1406C5.43229 9.86979 5.375 9.5625 5.375 9.21875C5.375 8.625 5.52083 8.07813 5.8125 7.57813C6.11458 7.06771 6.53125 6.61979 7.0625 6.23438C7.60417 5.84896 8.23958 5.54688 8.96875 5.32813C9.70833 5.10938 10.5104 5 11.375 5C12.0521 5 12.6615 5.07292 13.2031 5.21875C13.7448 5.35417 14.2083 5.55729 14.5938 5.82813C14.9792 6.08854 15.276 6.41146 15.4844 6.79688C15.6927 7.17188 15.7969 7.60417 15.7969 8.09375C15.7969 8.63542 15.6719 9.13021 15.4219 9.57813C15.1719 10.026 14.8229 10.4115 14.375 10.7344C13.9375 11.0469 13.4271 11.2917 12.8438 11.4688C12.2708 11.6458 11.6615 11.7344 11.0156 11.7344ZM8.39063 15.875C8.23438 15.875 8.07292 15.849 7.90625 15.7969C7.73958 15.7448 7.60417 15.6615 7.5 15.5469C7.61458 15.4531 7.71875 15.3281 7.8125 15.1719C7.90625 15.0156 7.98958 14.8333 8.0625 14.625C8.13542 14.4167 8.19271 14.1927 8.23438 13.9531L9.375 8.17188C9.44792 7.82813 9.54167 7.54167 9.65625 7.3125C9.78125 7.08333 9.94271 6.91146 10.1406 6.79688C10.3385 6.67187 10.5833 6.60937 10.875 6.60937C11.1771 6.60937 11.4115 6.67187 11.5781 6.79688C11.7552 6.91146 11.8594 7.05208 11.8906 7.21875C11.6302 7.34375 11.4531 7.53646 11.3594 7.79688C11.276 8.04688 11.2031 8.31771 11.1406 8.60938L9.92188 14.5625C9.86979 14.8542 9.77083 15.099 9.625 15.2969C9.47917 15.4844 9.30208 15.625 9.09375 15.7188C8.88542 15.8229 8.65104 15.875 8.39063 15.875Z" fill="white"/>
</svg>
