<svg width="23" height="23" viewBox="0 0 23 23" fill="none" xmlns="http://www.w3.org/2000/svg">
<path d="M0.505938 12.0023C0.226706 5.93359 4.92001 0.787569 10.9887 0.508337C17.0574 0.229105 22.2035 4.92241 22.4827 10.9911C22.7619 17.0598 18.0686 22.2059 11.9999 22.4851C5.93119 22.7643 0.78517 18.071 0.505938 12.0023Z" fill="black" fill-opacity="0.7"/>
<path d="M1.50488 11.9563C1.75873 17.4734 6.43693 21.74 11.9539 21.4861C17.471 21.2323 21.7376 16.5541 21.4837 11.0371C21.2299 5.52007 16.5517 1.25343 11.0347 1.50728L10.9887 0.508337C17.0574 0.229105 22.2035 4.92241 22.4827 10.9911C22.7619 17.0598 18.0686 22.2059 11.9999 22.4851C5.93119 22.7643 0.78517 18.071 0.505938 12.0023C0.226706 5.93359 4.92001 0.787569 10.9887 0.508337L11.0347 1.50728C5.51767 1.76113 1.25103 6.43933 1.50488 11.9563Z" fill="white"/>
<path d="M9.39571 5.63022C10.396 4.13628 12.5927 4.13628 13.593 5.63022C14.0289 6.28138 14.7427 6.69351 15.5246 6.74545C17.3184 6.86482 18.4168 8.76708 17.6232 10.3802L17.5617 10.514C17.2781 11.1863 17.299 11.9517 17.6232 12.6107C18.4168 14.2238 17.3184 16.1261 15.5246 16.2455L15.3781 16.2591C14.6541 16.3497 14.0016 16.7503 13.593 17.3607L13.4963 17.4964C12.4906 18.8097 10.498 18.8097 9.49239 17.4964L9.39571 17.3607C8.95979 16.7095 8.24595 16.2974 7.46407 16.2455C5.72608 16.1298 4.64111 14.3405 5.29708 12.7621L5.36544 12.6107C5.7114 11.9076 5.7114 11.0833 5.36544 10.3802C4.59671 8.81748 5.60355 6.98365 7.29805 6.76205L7.46407 6.74545C8.19716 6.69675 8.87031 6.33145 9.31075 5.74936L9.39571 5.63022ZM12.7619 6.18686C12.1577 5.28435 10.831 5.28435 10.2268 6.18686C9.61823 7.09581 8.62192 7.671 7.53047 7.7435C6.44694 7.81561 5.78353 8.9644 6.2629 9.93881C6.74584 10.9203 6.74584 12.0706 6.2629 13.0521C5.78353 14.0265 6.44694 15.1753 7.53047 15.2474C8.62192 15.3199 9.61823 15.8951 10.2268 16.804C10.831 17.7066 12.1577 17.7066 12.7619 16.804C13.3704 15.8951 14.3668 15.3199 15.4582 15.2474C16.5417 15.1753 17.2052 14.0265 16.7258 13.0521C16.2428 12.0706 16.2428 10.9203 16.7258 9.93881C17.2052 8.9644 16.5417 7.81561 15.4582 7.7435C14.3668 7.671 13.3704 7.09581 12.7619 6.18686Z" fill="white"/>
<path d="M13.4941 11.4961C13.4941 12.6007 12.5987 13.4961 11.4941 13.4961C10.3896 13.4961 9.49414 12.6007 9.49414 11.4961C9.49414 10.3915 10.3896 9.49609 11.4941 9.49609C12.5987 9.49609 13.4941 10.3915 13.4941 11.4961Z" fill="white"/>
</svg>
