<svg width="25" height="17" viewBox="0 0 25 17" fill="none" xmlns="http://www.w3.org/2000/svg">
<path d="M22.375 0C23.4796 0 24.375 0.895431 24.375 2V2.1875C23.5121 2.1875 22.8125 2.88706 22.8125 3.75C22.8125 4.61295 23.5121 5.3125 24.375 5.3125V6.5625C23.5121 6.5625 22.8125 7.26205 22.8125 8.125C22.8125 8.98794 23.5121 9.6875 24.375 9.6875V10.9375C23.5121 10.9375 22.8125 11.6371 22.8125 12.5C22.8125 13.3629 23.5121 14.0625 24.375 14.0625V14.25C24.375 15.3546 23.4796 16.25 22.375 16.25H2C0.895431 16.25 1.00666e-09 15.3546 0 14.25V14.0625C0.862945 14.0625 1.5625 13.3629 1.5625 12.5C1.5625 11.6371 0.862945 10.9375 0 10.9375V9.6875C0.862945 9.6875 1.5625 8.98794 1.5625 8.125C1.5625 7.26205 0.862945 6.5625 0 6.5625V5.3125C0.862945 5.3125 1.5625 4.61295 1.5625 3.75C1.5625 2.88706 0.862945 2.1875 0 2.1875V2C0 0.895431 0.895431 3.37227e-08 2 0H22.375ZM12.9639 4.28027C12.7958 3.86227 12.2042 3.86227 12.0361 4.28027L11.3242 6.05371C11.2527 6.23181 11.085 6.35323 10.8936 6.36621L8.9873 6.49609C8.53771 6.52658 8.35455 7.08892 8.7002 7.37793L10.167 8.60352C10.3142 8.72658 10.3779 8.92329 10.3311 9.10938L9.86523 10.9629C9.75547 11.3998 10.2336 11.7472 10.6152 11.5078L12.2344 10.4922C12.3969 10.3902 12.6031 10.3902 12.7656 10.4922L14.3848 11.5078C14.7664 11.7472 15.2445 11.3998 15.1348 10.9629L14.6689 9.10938C14.6221 8.92329 14.6858 8.72658 14.833 8.60352L16.2998 7.37793C16.6455 7.08892 16.4623 6.52658 16.0127 6.49609L14.1064 6.36621C13.915 6.35323 13.7473 6.23181 13.6758 6.05371L12.9639 4.28027Z" fill="white"/>
</svg>
