<svg width="17" height="17" viewBox="0 0 17 17" fill="none" xmlns="http://www.w3.org/2000/svg">
<path d="M6.99316 3C10.8641 3.00009 14 6.13605 14 10C14 13.8639 10.8641 16.9999 6.99316 17C3.12916 17 6.43559e-08 13.864 0 10C0 6.136 3.12916 3 6.99316 3ZM7 4.40039C3.906 4.40039 1.40039 6.906 1.40039 10C1.40039 13.094 3.906 15.5996 7 15.5996C10.094 15.5996 12.5996 13.094 12.5996 10C12.5996 6.906 10.094 4.40039 7 4.40039ZM10.5771 11.4004C10.0171 12.8282 8.63089 13.8496 7 13.8496C5.36911 13.8496 3.98292 12.8282 3.42285 11.4004H10.5771ZM4.5498 7.2002C5.1308 7.2002 5.59961 7.669 5.59961 8.25C5.59961 8.831 5.1308 9.2998 4.5498 9.2998C3.96889 9.2997 3.5 8.83093 3.5 8.25C3.5 7.66906 3.96889 7.2003 4.5498 7.2002ZM9.4502 7.2002C10.0311 7.2003 10.5 7.66906 10.5 8.25C10.5 8.83093 10.0311 9.2997 9.4502 9.2998C8.86919 9.2998 8.40039 8.831 8.40039 8.25C8.40039 7.669 8.86919 7.2002 9.4502 7.2002ZM14.5127 2.47461H17V3.5127H14.5127V6H13.4746V3.5127H11V2.47461H13.4746V0H14.5127V2.47461Z" fill="#999999"/>
</svg>
